<?xml version="1.0" encoding="UTF-8"?>
<svg id="Ebene_1" data-name="Ebene 1" xmlns="http://www.w3.org/2000/svg" width="48.6mm" height="30mm" viewBox="0 0 137.76 85.04">
  <defs>
    <style>
      .cls-1 {
        stroke-width: 0px;
      }
    </style>
  </defs>
  <g>
    <path class="cls-1" d="M81,28.35h11.62c6.71,0,11.11,3.59,11.11,9.92,0,6.68-4.6,10.21-11.39,10.21h-5.15v8.21h-6.19v-28.35ZM91.95,43.11c3.4,0,5.47-1.6,5.47-4.62s-1.92-4.76-5.39-4.76h-4.84v9.39h4.76Z"/>
    <path class="cls-1" d="M105.11,47.94h6.35c.32,2.52,2.05,4.22,5.72,4.22,3.19,0,5.05-1.42,5.05-3.51s-1.46-2.88-3.98-3.31l-3.31-.51c-5.91-.95-9.03-3.5-9.03-8.16,0-5.36,4.1-8.79,10.92-8.79s10.61,3.23,11.2,8.59h-6.31c-.43-2.21-2.13-3.59-4.97-3.59s-4.57,1.26-4.57,3.31c0,1.93,1.42,2.76,3.98,3.19l3.31.55c5.68.91,8.99,3.31,8.99,8.08,0,5.72-4.34,9.15-11.51,9.15s-11-3.27-11.83-9.23Z"/>
    <path class="cls-1" d="M131.57,28.35h6.19v28.35h-6.19v-28.35Z"/>
  </g>
  <g>
    <path class="cls-1" d="M44.26,66.66c-.31,0-.57.25-.57.57s.25.57.57.57.57-.25.57-.57-.25-.57-.57-.57Z"/>
    <path class="cls-1" d="M46.97,65.76c.31,0,.57-.25.57-.57s-.25-.57-.57-.57-.57.25-.57.57.25.57.57.57Z"/>
    <path class="cls-1" d="M46.44,66c-.31,0-.57.25-.57.57s.25.57.57.57.57-.25.57-.57-.25-.57-.57-.57Z"/>
    <path class="cls-1" d="M44.73,65.5c-.31,0-.57.25-.57.57s.25.57.57.57.57-.25.57-.57-.25-.57-.57-.57Z"/>
    <path class="cls-1" d="M43.31,65.76c.31,0,.57-.25.57-.57s-.25-.57-.57-.57-.57.25-.57.57.25.57.57.57Z"/>
    <path class="cls-1" d="M43.82,66.48c0-.31-.25-.57-.57-.57s-.57.25-.57.57.25.57.57.57.57-.25.57-.57Z"/>
    <path class="cls-1" d="M42,66.1c.31,0,.57-.25.57-.57s-.25-.57-.57-.57-.57.25-.57.57.25.57.57.57Z"/>
    <path class="cls-1" d="M42.01,67.97c.31,0,.57-.25.57-.57s-.25-.57-.57-.57-.57.25-.57.57.25.57.57.57Z"/>
    <path class="cls-1" d="M43.56,63.38c-.31,0-.57.25-.57.57s.25.57.57.57.57-.25.57-.57-.25-.57-.57-.57Z"/>
    <path class="cls-1" d="M41.19,66.92c0-.31-.25-.57-.57-.57s-.57.25-.57.57.25.57.57.57.57-.25.57-.57Z"/>
    <path class="cls-1" d="M40.67,66.15c.31,0,.57-.25.57-.57s-.25-.57-.57-.57-.57.25-.57.57.25.57.57.57Z"/>
    <path class="cls-1" d="M40.25,64.38c0-.31-.25-.57-.57-.57s-.57.25-.57.57.25.57.57.57.57-.25.57-.57Z"/>
    <path class="cls-1" d="M42.93,64.1c0-.31-.25-.57-.57-.57s-.57.25-.57.57.25.57.57.57.57-.25.57-.57Z"/>
    <path class="cls-1" d="M41.67,64.27c0-.31-.25-.57-.57-.57s-.57.25-.57.57.25.57.57.57.57-.25.57-.57Z"/>
    <path class="cls-1" d="M41.54,62.39c-.31,0-.57.25-.57.57s.25.57.57.57.57-.25.57-.57-.25-.57-.57-.57Z"/>
    <path class="cls-1" d="M40.84,63.24c0-.31-.25-.57-.57-.57s-.57.25-.57.57.25.57.57.57.57-.25.57-.57Z"/>
    <path class="cls-1" d="M41.28,61.12c-.31,0-.57.25-.57.57s.25.57.57.57.57-.25.57-.57-.25-.57-.57-.57Z"/>
    <path class="cls-1" d="M42.68,62.28c-.31,0-.57.25-.57.57s.25.57.57.57.57-.25.57-.57-.25-.57-.57-.57Z"/>
    <path class="cls-1" d="M46.19,65.13c0-.31-.25-.57-.57-.57s-.57.25-.57.57.25.57.57.57.57-.25.57-.57Z"/>
    <path class="cls-1" d="M54.7,61.78c-.31,0-.57.25-.57.57s.25.57.57.57.57-.25.57-.57-.25-.57-.57-.57Z"/>
    <path class="cls-1" d="M57.78,61.41c-.31,0-.57.25-.57.57s.25.57.57.57.57-.25.57-.57-.25-.57-.57-.57Z"/>
    <path class="cls-1" d="M44.55,63.99c-.31,0-.57.25-.57.57s.25.57.57.57.57-.25.57-.57-.25-.57-.57-.57Z"/>
    <circle class="cls-1" cx="40.12" cy="59.55" r=".57"/>
    <path class="cls-1" d="M41.08,59.44c0,.31.25.57.57.57s.57-.25.57-.57-.25-.57-.57-.57-.57.25-.57.57Z"/>
    <path class="cls-1" d="M31.38,59.77c.31,0,.57-.25.57-.57s-.25-.57-.57-.57-.57.25-.57.57.25.57.57.57Z"/>
    <path class="cls-1" d="M29.73,58.81c.31,0,.57-.25.57-.57s-.25-.57-.57-.57-.57.25-.57.57.25.57.57.57Z"/>
    <path class="cls-1" d="M32.56,58.33c.31,0,.57-.25.57-.57s-.25-.57-.57-.57-.57.25-.57.57.25.57.57.57Z"/>
    <path class="cls-1" d="M31.03,58.45c.31,0,.57-.25.57-.57s-.25-.57-.57-.57-.57.25-.57.57.25.57.57.57Z"/>
    <path class="cls-1" d="M29.33,56.61c.31,0,.57-.25.57-.57s-.25-.57-.57-.57-.57.25-.57.57.25.57.57.57Z"/>
    <path class="cls-1" d="M30.4,56.14c-.31,0-.57.25-.57.57s.25.57.57.57.57-.25.57-.57-.25-.57-.57-.57Z"/>
    <path class="cls-1" d="M28.27,57.11c-.31,0-.57.25-.57.57s.25.57.57.57.57-.25.57-.57-.25-.57-.57-.57Z"/>
    <path class="cls-1" d="M28.69,53.12c.31,0,.57-.25.57-.57s-.25-.57-.57-.57-.57.25-.57.57.25.57.57.57Z"/>
    <path class="cls-1" d="M28.2,50.37c0,.31.25.57.57.57s.57-.25.57-.57-.25-.57-.57-.57-.57.25-.57.57Z"/>
    <path class="cls-1" d="M26.25,53.03c0,.31.25.57.57.57s.57-.25.57-.57-.25-.57-.57-.57-.57.25-.57.57Z"/>
    <path class="cls-1" d="M25.96,53.9c0-.31-.25-.57-.57-.57s-.57.25-.57.57.25.57.57.57.57-.25.57-.57Z"/>
    <circle class="cls-1" cx="25.21" cy="52.3" r=".57"/>
    <path class="cls-1" d="M23.1,52.73c0-.31-.25-.57-.57-.57s-.57.25-.57.57.25.57.57.57.57-.25.57-.57Z"/>
    <path class="cls-1" d="M21.45,51.49c.31,0,.57-.25.57-.57s-.25-.57-.57-.57-.57.25-.57.57.25.57.57.57Z"/>
    <path class="cls-1" d="M23.39,49.69c0-.31-.25-.57-.57-.57s-.57.25-.57.57.25.57.57.57.57-.25.57-.57Z"/>
    <path class="cls-1" d="M28.55,54.96c.31,0,.57-.25.57-.57s-.25-.57-.57-.57-.57.25-.57.57.25.57.57.57Z"/>
    <path class="cls-1" d="M26.62,51.29c0,.31.25.57.57.57s.57-.25.57-.57-.25-.57-.57-.57-.57.25-.57.57Z"/>
    <circle class="cls-1" cx="17.51" cy="49.25" r=".57"/>
    <path class="cls-1" d="M17.47,51.83c0-.31-.25-.57-.57-.57s-.57.25-.57.57.25.57.57.57.57-.25.57-.57Z"/>
    <path class="cls-1" d="M20.89,52.91c0-.31-.25-.57-.57-.57s-.57.25-.57.57.25.57.57.57.57-.25.57-.57Z"/>
    <path class="cls-1" d="M18.83,50.66c0,.31.25.57.57.57s.57-.25.57-.57-.25-.57-.57-.57-.57.25-.57.57Z"/>
    <path class="cls-1" d="M17.1,54.22c0,.31.25.57.57.57s.57-.25.57-.57-.25-.57-.57-.57-.57.25-.57.57Z"/>
    <path class="cls-1" d="M27.08,49.07c0,.31.25.57.57.57s.57-.25.57-.57-.25-.57-.57-.57-.57.25-.57.57Z"/>
    <path class="cls-1" d="M25.97,50.52c.31,0,.57-.25.57-.57s-.25-.57-.57-.57-.57.25-.57.57.25.57.57.57Z"/>
    <path class="cls-1" d="M27.99,47.85c.31,0,.57-.25.57-.57s-.25-.57-.57-.57-.57.25-.57.57.25.57.57.57Z"/>
    <circle class="cls-1" cx="26" cy="47.07" r=".57"/>
    <path class="cls-1" d="M26.11,45.47c0,.31.25.57.57.57s.57-.25.57-.57-.25-.57-.57-.57-.57.25-.57.57Z"/>
    <circle class="cls-1" cx="28.02" cy="43.44" r=".57"/>
    <path class="cls-1" d="M30.22,48.79c0-.31-.25-.57-.57-.57s-.57.25-.57.57.25.57.57.57.57-.25.57-.57Z"/>
    <path class="cls-1" d="M30.58,47.83c0,.31.25.57.57.57s.57-.25.57-.57-.25-.57-.57-.57-.57.25-.57.57Z"/>
    <path class="cls-1" d="M29.07,46.27c0,.31.25.57.57.57s.57-.25.57-.57-.25-.57-.57-.57-.57.25-.57.57Z"/>
    <path class="cls-1" d="M32.35,49.19c0,.31.25.57.57.57s.57-.25.57-.57-.25-.57-.57-.57-.57.25-.57.57Z"/>
    <path class="cls-1" d="M31.23,48.93c-.31,0-.57.25-.57.57s.25.57.57.57.57-.25.57-.57-.25-.57-.57-.57Z"/>
    <path class="cls-1" d="M31.71,46.35c0,.31.25.57.57.57s.57-.25.57-.57-.25-.57-.57-.57-.57.25-.57.57Z"/>
    <path class="cls-1" d="M35.33,47.73c-.31,0-.57.25-.57.57s.25.57.57.57.57-.25.57-.57-.25-.57-.57-.57Z"/>
    <path class="cls-1" d="M31.33,43.31c0,.31.25.57.57.57s.57-.25.57-.57-.25-.57-.57-.57-.57.25-.57.57Z"/>
    <path class="cls-1" d="M34.7,45.94c-.31,0-.57.25-.57.57s.25.57.57.57.57-.25.57-.57-.25-.57-.57-.57Z"/>
    <path class="cls-1" d="M33.43,48.52c.31,0,.57-.25.57-.57s-.25-.57-.57-.57-.57.25-.57.57.25.57.57.57Z"/>
    <path class="cls-1" d="M32.18,50.75c0-.31-.25-.57-.57-.57s-.57.25-.57.57.25.57.57.57.57-.25.57-.57Z"/>
    <path class="cls-1" d="M30.09,50.83c-.31,0-.57.25-.57.57s.25.57.57.57.57-.25.57-.57-.25-.57-.57-.57Z"/>
    <path class="cls-1" d="M32.32,53c.31,0,.57-.25.57-.57s-.25-.57-.57-.57-.57.25-.57.57.25.57.57.57Z"/>
    <path class="cls-1" d="M30.49,52.7c0,.31.25.57.57.57s.57-.25.57-.57-.25-.57-.57-.57-.57.25-.57.57Z"/>
    <path class="cls-1" d="M33.3,50.43c-.31,0-.57.25-.57.57s.25.57.57.57.57-.25.57-.57-.25-.57-.57-.57Z"/>
    <path class="cls-1" d="M30.45,53.75c0-.31-.25-.57-.57-.57s-.57.25-.57.57.25.57.57.57.57-.25.57-.57Z"/>
    <path class="cls-1" d="M31.98,54.11c0-.31-.25-.57-.57-.57s-.57.25-.57.57.25.57.57.57.57-.25.57-.57Z"/>
    <path class="cls-1" d="M33.55,53.75c.31,0,.57-.25.57-.57s-.25-.57-.57-.57-.57.25-.57.57.25.57.57.57Z"/>
    <path class="cls-1" d="M34.31,49.24c-.31,0-.57.25-.57.57s.25.57.57.57.57-.25.57-.57-.25-.57-.57-.57Z"/>
    <path class="cls-1" d="M35.07,52.68c-.31,0-.57.25-.57.57s.25.57.57.57.57-.25.57-.57-.25-.57-.57-.57Z"/>
    <path class="cls-1" d="M34.93,50.38c-.31,0-.57.25-.57.57s.25.57.57.57.57-.25.57-.57-.25-.57-.57-.57Z"/>
    <path class="cls-1" d="M33.86,52.16c0,.31.25.57.57.57s.57-.25.57-.57-.25-.57-.57-.57-.57.25-.57.57Z"/>
    <path class="cls-1" d="M37.04,53.11c0-.31-.25-.57-.57-.57s-.57.25-.57.57.25.57.57.57.57-.25.57-.57Z"/>
    <path class="cls-1" d="M33.72,56.27c.31,0,.57-.25.57-.57s-.25-.57-.57-.57-.57.25-.57.57.25.57.57.57Z"/>
    <path class="cls-1" d="M31.94,55.35c0,.31.25.57.57.57s.57-.25.57-.57-.25-.57-.57-.57-.57.25-.57.57Z"/>
    <path class="cls-1" d="M31.97,57.08c.31,0,.57-.25.57-.57s-.25-.57-.57-.57-.57.25-.57.57.25.57.57.57Z"/>
    <path class="cls-1" d="M33.27,54.07c0-.31-.25-.57-.57-.57s-.57.25-.57.57.25.57.57.57.57-.25.57-.57Z"/>
    <path class="cls-1" d="M30.5,54.53c-.31,0-.57.25-.57.57s.25.57.57.57.57-.25.57-.57-.25-.57-.57-.57Z"/>
    <path class="cls-1" d="M35.31,56.44c0-.31-.25-.57-.57-.57s-.57.25-.57.57.25.57.57.57.57-.25.57-.57Z"/>
    <path class="cls-1" d="M34.97,55.81c.31,0,.57-.25.57-.57s-.25-.57-.57-.57-.57.25-.57.57.25.57.57.57Z"/>
    <path class="cls-1" d="M34.82,54.29c0-.31-.25-.57-.57-.57s-.57.25-.57.57.25.57.57.57.57-.25.57-.57Z"/>
    <path class="cls-1" d="M32.22,61.5c.31,0,.57-.25.57-.57s-.25-.57-.57-.57-.57.25-.57.57.25.57.57.57Z"/>
    <path class="cls-1" d="M31.37,61.25c0-.31-.25-.57-.57-.57s-.57.25-.57.57.25.57.57.57.57-.25.57-.57Z"/>
    <path class="cls-1" d="M28.04,63.58c-.31,0-.57.25-.57.57s.25.57.57.57.57-.25.57-.57-.25-.57-.57-.57Z"/>
    <path class="cls-1" d="M26.69,63.21c.31,0,.57-.25.57-.57s-.25-.57-.57-.57-.57.25-.57.57.25.57.57.57Z"/>
    <path class="cls-1" d="M30.72,62.6c0-.31-.25-.57-.57-.57s-.57.25-.57.57.25.57.57.57.57-.25.57-.57Z"/>
    <path class="cls-1" d="M31.53,63.06c-.31,0-.57.25-.57.57s.25.57.57.57.57-.25.57-.57-.25-.57-.57-.57Z"/>
    <path class="cls-1" d="M33.41,59.33c0-.31-.25-.57-.57-.57s-.57.25-.57.57.25.57.57.57.57-.25.57-.57Z"/>
    <path class="cls-1" d="M33.74,62.12c.31,0,.57-.25.57-.57s-.25-.57-.57-.57-.57.25-.57.57.25.57.57.57Z"/>
    <path class="cls-1" d="M32.69,62.12c0-.31-.25-.57-.57-.57s-.57.25-.57.57.25.57.57.57.57-.25.57-.57Z"/>
    <path class="cls-1" d="M33.2,63.67c.31,0,.57-.25.57-.57s-.25-.57-.57-.57-.57.25-.57.57.25.57.57.57Z"/>
    <path class="cls-1" d="M35.71,62.53c0-.31-.25-.57-.57-.57s-.57.25-.57.57.25.57.57.57.57-.25.57-.57Z"/>
    <path class="cls-1" d="M35.01,61.78c.31,0,.57-.25.57-.57s-.25-.57-.57-.57-.57.25-.57.57.25.57.57.57Z"/>
    <path class="cls-1" d="M35.03,59.27c0-.31-.25-.57-.57-.57s-.57.25-.57.57.25.57.57.57.57-.25.57-.57Z"/>
    <path class="cls-1" d="M34.23,58.53c.31,0,.57-.25.57-.57s-.25-.57-.57-.57c-.05,0-.1,0-.14.02.02-.06.04-.13.04-.2,0-.31-.25-.57-.57-.57s-.57.25-.57.57.25.57.57.57c.05,0,.1,0,.14-.02-.02.06-.04.13-.04.2,0,.31.25.57.57.57Z"/>
    <path class="cls-1" d="M35.69,57.85c.31,0,.57-.25.57-.57s-.25-.57-.57-.57-.57.25-.57.57.25.57.57.57Z"/>
    <path class="cls-1" d="M35.79,59.11c.31,0,.57-.25.57-.57s-.25-.57-.57-.57-.57.25-.57.57.25.57.57.57Z"/>
    <path class="cls-1" d="M36.07,59.74c0-.31-.25-.57-.57-.57s-.57.25-.57.57.25.57.57.57.57-.25.57-.57Z"/>
    <path class="cls-1" d="M36.14,52.39c.31,0,.57-.25.57-.57s-.25-.57-.57-.57-.57.25-.57.57.25.57.57.57Z"/>
    <path class="cls-1" d="M38.13,53.92c0-.31-.25-.57-.57-.57s-.57.25-.57.57.25.57.57.57.57-.25.57-.57Z"/>
    <path class="cls-1" d="M36,55.03c.31,0,.57-.25.57-.57s-.25-.57-.57-.57-.57.25-.57.57.25.57.57.57Z"/>
    <path class="cls-1" d="M37.23,57.36c.31,0,.57-.25.57-.57s-.25-.57-.57-.57-.57.25-.57.57.25.57.57.57Z"/>
    <path class="cls-1" d="M37.51,58.05c0-.31-.25-.57-.57-.57s-.57.25-.57.57.25.57.57.57.57-.25.57-.57Z"/>
    <path class="cls-1" d="M36.71,58.89c-.31,0-.57.25-.57.57s.25.57.57.57.57-.25.57-.57-.25-.57-.57-.57Z"/>
    <path class="cls-1" d="M37.97,59.41c.31,0,.57-.25.57-.57s-.25-.57-.57-.57-.57.25-.57.57.25.57.57.57Z"/>
    <path class="cls-1" d="M38.91,57.74c0-.31-.25-.57-.57-.57s-.57.25-.57.57.25.57.57.57.57-.25.57-.57Z"/>
    <path class="cls-1" d="M39.97,58.44c0-.16-.06-.3-.17-.4.06.02.13.04.2.04.31,0,.57-.25.57-.57s-.25-.57-.57-.57-.57.25-.57.57c0,.16.06.3.17.4-.06-.02-.13-.04-.2-.04-.31,0-.57.25-.57.57,0,.17.08.32.2.43-.02,0-.05,0-.08,0-.31,0-.57.25-.57.57,0,.28.2.5.46.56-.17,0-.32.09-.42.21,0-.02,0-.04,0-.06,0-.31-.25-.57-.57-.57s-.57.25-.57.57.25.57.57.57c.18,0,.34-.09.44-.22,0,.02,0,.04,0,.06,0,.31.25.57.57.57s.57-.25.57-.57c0-.28-.2-.5-.46-.56.3,0,.55-.26.55-.57,0-.17-.08-.32-.2-.43.03,0,.05,0,.08,0,.31,0,.57-.25.57-.57Z"/>
    <path class="cls-1" d="M39.23,56.63c0-.31-.25-.57-.57-.57-.1,0-.19.03-.27.07.12-.1.2-.26.2-.43,0-.31-.25-.57-.57-.57s-.57.25-.57.57.25.57.57.57c.1,0,.19-.03.27-.07-.12.1-.2.26-.2.43,0,.31.25.57.57.57s.57-.25.57-.57Z"/>
    <path class="cls-1" d="M39.78,56.96c.31,0,.57-.25.57-.57s-.25-.57-.57-.57-.57.25-.57.57.25.57.57.57Z"/>
    <path class="cls-1" d="M38.55,55.15c.31,0,.57-.25.57-.57s-.25-.57-.57-.57-.57.25-.57.57.25.57.57.57Z"/>
    <path class="cls-1" d="M37.12,52.4c0,.31.25.57.57.57s.57-.25.57-.57-.25-.57-.57-.57-.57.25-.57.57Z"/>
    <path class="cls-1" d="M38.18,51.77c.31,0,.57-.25.57-.57s-.25-.57-.57-.57-.57.25-.57.57.25.57.57.57Z"/>
    <path class="cls-1" d="M36.29,50.83c0,.31.25.57.57.57s.57-.25.57-.57-.25-.57-.57-.57-.57.25-.57.57Z"/>
    <path class="cls-1" d="M41.77,49.05c0-.31-.25-.57-.57-.57s-.57.25-.57.57.25.57.57.57.57-.25.57-.57Z"/>
    <path class="cls-1" d="M40.13,48.97c0-.31-.25-.57-.57-.57s-.57.25-.57.57.25.57.57.57.57-.25.57-.57Z"/>
    <circle class="cls-1" cx="38.9" cy="47.5" r=".57"/>
    <path class="cls-1" d="M39.34,49.75c-.31,0-.57.25-.57.57s.25.57.57.57.57-.25.57-.57-.25-.57-.57-.57Z"/>
    <path class="cls-1" d="M39.91,51.89c0-.31-.25-.57-.57-.57s-.57.25-.57.57.25.57.57.57.57-.25.57-.57Z"/>
    <circle class="cls-1" cx="40.17" cy="52.9" r=".57"/>
    <path class="cls-1" d="M40.74,49.96c-.31,0-.57.25-.57.57s.25.57.57.57.57-.25.57-.57-.25-.57-.57-.57Z"/>
    <path class="cls-1" d="M42.12,49.41c-.31,0-.57.25-.57.57s.25.57.57.57.57-.25.57-.57-.25-.57-.57-.57Z"/>
    <path class="cls-1" d="M44.16,49.16c.31,0,.57-.25.57-.57s-.25-.57-.57-.57-.57.25-.57.57.25.57.57.57Z"/>
    <path class="cls-1" d="M45.47,49.72c0-.31-.25-.57-.57-.57s-.57.25-.57.57.25.57.57.57.57-.25.57-.57Z"/>
    <path class="cls-1" d="M46.34,48.71c0-.31-.25-.57-.57-.57s-.57.25-.57.57.25.57.57.57.57-.25.57-.57Z"/>
    <path class="cls-1" d="M50.52,45.17c-.31,0-.57.25-.57.57s.25.57.57.57.57-.25.57-.57-.25-.57-.57-.57Z"/>
    <path class="cls-1" d="M49.07,45.97c.31,0,.57-.25.57-.57s-.25-.57-.57-.57-.57.25-.57.57.25.57.57.57Z"/>
    <path class="cls-1" d="M47.38,45.92c.31,0,.57-.25.57-.57s-.25-.57-.57-.57-.57.25-.57.57.25.57.57.57Z"/>
    <path class="cls-1" d="M48.54,49.89c.31,0,.57-.25.57-.57s-.25-.57-.57-.57-.57.25-.57.57.25.57.57.57Z"/>
    <path class="cls-1" d="M47.11,48.56c.31,0,.57-.25.57-.57s-.25-.57-.57-.57-.57.25-.57.57.25.57.57.57Z"/>
    <path class="cls-1" d="M44.85,46.52c.31,0,.57-.25.57-.57s-.25-.57-.57-.57-.57.25-.57.57.25.57.57.57Z"/>
    <path class="cls-1" d="M46.89,46.89c0-.31-.25-.57-.57-.57s-.57.25-.57.57.25.57.57.57.57-.25.57-.57Z"/>
    <circle class="cls-1" cx="45.74" cy="44.85" r=".57"/>
    <path class="cls-1" d="M45.45,47.3c0-.31-.25-.57-.57-.57s-.57.25-.57.57.25.57.57.57.57-.25.57-.57Z"/>
    <path class="cls-1" d="M43.86,47.12c0-.31-.25-.57-.57-.57s-.57.25-.57.57.25.57.57.57.57-.25.57-.57Z"/>
    <path class="cls-1" d="M40.67,46.14c0-.31-.25-.57-.57-.57s-.57.25-.57.57.25.57.57.57.57-.25.57-.57Z"/>
    <path class="cls-1" d="M43.4,46.07c.31,0,.57-.25.57-.57s-.25-.57-.57-.57-.57.25-.57.57.25.57.57.57Z"/>
    <path class="cls-1" d="M42.56,48.97c.31,0,.57-.25.57-.57s-.25-.57-.57-.57-.57.25-.57.57.25.57.57.57Z"/>
    <path class="cls-1" d="M42.45,46.5c0-.31-.25-.57-.57-.57s-.57.25-.57.57.25.57.57.57.57-.25.57-.57Z"/>
    <path class="cls-1" d="M40.84,48.2c.31,0,.57-.25.57-.57s-.25-.57-.57-.57-.57.25-.57.57.25.57.57.57Z"/>
    <path class="cls-1" d="M38.66,53.78c.31,0,.57-.25.57-.57s-.25-.57-.57-.57-.57.25-.57.57.25.57.57.57Z"/>
    <path class="cls-1" d="M37.65,60.87c-.31,0-.57.25-.57.57s.25.57.57.57.57-.25.57-.57-.25-.57-.57-.57Z"/>
    <path class="cls-1" d="M39.16,61.16c-.31,0-.57.25-.57.57s.25.57.57.57c.2,0,.37-.1.47-.26,0,.02,0,.04,0,.06,0,.31.25.57.57.57s.57-.25.57-.57-.25-.57-.57-.57c-.2,0-.37.1-.47.26,0-.02,0-.04,0-.06,0-.31-.25-.57-.57-.57Z"/>
    <path class="cls-1" d="M38.22,61.85c-.31,0-.57.25-.57.57s.25.57.57.57c.16,0,.3-.06.4-.17-.08.1-.14.23-.14.36,0,.31.25.57.57.57s.57-.25.57-.57-.25-.57-.57-.57c-.16,0-.3.06-.4.17.08-.1.14-.23.14-.36,0-.31-.25-.57-.57-.57Z"/>
    <path class="cls-1" d="M36.94,63.25c.31,0,.57-.25.57-.57s-.25-.57-.57-.57-.57.25-.57.57.25.57.57.57Z"/>
    <path class="cls-1" d="M36.61,63.48c0-.31-.25-.57-.57-.57s-.57.25-.57.57.25.57.57.57.57-.25.57-.57Z"/>
    <path class="cls-1" d="M38.01,64.36c.31,0,.57-.25.57-.57s-.25-.57-.57-.57-.57.25-.57.57.25.57.57.57Z"/>
    <circle class="cls-1" cx="36.86" cy="64.68" r=".57"/>
    <circle class="cls-1" cx="38.53" cy="66.77" r=".57"/>
    <path class="cls-1" d="M37.22,66.56c.31,0,.57-.25.57-.57s-.25-.57-.57-.57-.57.25-.57.57.25.57.57.57Z"/>
    <path class="cls-1" d="M37.28,68.23c.31,0,.57-.25.57-.57s-.25-.57-.57-.57-.57.25-.57.57.25.57.57.57Z"/>
    <path class="cls-1" d="M35.54,65.69c-.31,0-.57.25-.57.57s.25.57.57.57.57-.25.57-.57-.25-.57-.57-.57Z"/>
    <path class="cls-1" d="M32.67,64.05c-.31,0-.57.25-.57.57s.25.57.57.57.57-.25.57-.57-.25-.57-.57-.57Z"/>
    <path class="cls-1" d="M25,62.02c0-.31-.25-.57-.57-.57s-.57.25-.57.57.25.57.57.57.57-.25.57-.57Z"/>
    <path class="cls-1" d="M31.71,65.8c0,.31.25.57.57.57s.57-.25.57-.57-.25-.57-.57-.57-.57.25-.57.57Z"/>
    <path class="cls-1" d="M29.75,64.53c.31,0,.57-.25.57-.57s-.25-.57-.57-.57-.57.25-.57.57.25.57.57.57Z"/>
    <path class="cls-1" d="M30.91,65.3c0-.31-.25-.57-.57-.57s-.57.25-.57.57.25.57.57.57.57-.25.57-.57Z"/>
    <path class="cls-1" d="M34.67,66.69c0-.31-.25-.57-.57-.57s-.57.25-.57.57.25.57.57.57.57-.25.57-.57Z"/>
    <circle class="cls-1" cx="34.29" cy="65.31" r=".57"/>
    <path class="cls-1" d="M34.1,64.4c.31,0,.57-.25.57-.57s-.25-.57-.57-.57-.57.25-.57.57.25.57.57.57Z"/>
    <path class="cls-1" d="M35.51,65.18c.31,0,.57-.25.57-.57s-.25-.57-.57-.57-.57.25-.57.57.25.57.57.57Z"/>
    <path class="cls-1" d="M33.74,60.88c.31,0,.57-.25.57-.57s-.25-.57-.57-.57-.57.25-.57.57.25.57.57.57Z"/>
    <path class="cls-1" d="M36.22,62.21c.31,0,.57-.25.57-.57,0-.22-.12-.4-.3-.5.03,0,.06,0,.09,0,.31,0,.57-.25.57-.57s-.25-.57-.57-.57-.57.25-.57.57c0,.22.12.4.3.5-.03,0-.06,0-.09,0-.31,0-.57.25-.57.57s.25.57.57.57Z"/>
    <circle class="cls-1" cx="36.4" cy="47.02" r=".57"/>
    <path class="cls-1" d="M37.79,45.64c-.31,0-.57.25-.57.57s.25.57.57.57.57-.25.57-.57-.25-.57-.57-.57Z"/>
    <path class="cls-1" d="M35.99,49.21c-.31,0-.57.25-.57.57s.25.57.57.57.57-.25.57-.57-.25-.57-.57-.57Z"/>
    <circle class="cls-1" cx="37.21" cy="48.45" r=".57"/>
    <path class="cls-1" d="M38.28,50.13c.31,0,.57-.25.57-.57s-.25-.57-.57-.57-.57.25-.57.57.25.57.57.57Z"/>
    <path class="cls-1" d="M29.97,60.68c.31,0,.57-.25.57-.57s-.25-.57-.57-.57-.57.25-.57.57.25.57.57.57Z"/>
    <path class="cls-1" d="M24.47,55.73c0,.31.25.57.57.57s.57-.25.57-.57-.25-.57-.57-.57-.57.25-.57.57Z"/>
    <path class="cls-1" d="M23.81,54.64c.31,0,.57-.25.57-.57s-.25-.57-.57-.57-.57.25-.57.57.25.57.57.57Z"/>
    <path class="cls-1" d="M25.28,59.96c.31,0,.57-.25.57-.57s-.25-.57-.57-.57-.57.25-.57.57.25.57.57.57Z"/>
    <path class="cls-1" d="M24.18,59.28c0-.31-.25-.57-.57-.57s-.57.25-.57.57.25.57.57.57.57-.25.57-.57Z"/>
    <path class="cls-1" d="M28.23,58.85c-.31,0-.57.25-.57.57s.25.57.57.57.57-.25.57-.57-.25-.57-.57-.57Z"/>
    <path class="cls-1" d="M27.35,58.73c0-.31-.25-.57-.57-.57s-.57.25-.57.57.25.57.57.57.57-.25.57-.57Z"/>
    <path class="cls-1" d="M28.29,56.17c0-.31-.25-.57-.57-.57s-.57.25-.57.57.25.57.57.57.57-.25.57-.57Z"/>
    <path class="cls-1" d="M27.32,54.92c0-.31-.25-.57-.57-.57s-.57.25-.57.57.25.57.57.57.57-.25.57-.57Z"/>
    <path class="cls-1" d="M26.24,57.9c.31,0,.57-.25.57-.57s-.25-.57-.57-.57-.57.25-.57.57.25.57.57.57Z"/>
    <path class="cls-1" d="M24.24,58.12c.31,0,.57-.25.57-.57s-.25-.57-.57-.57-.57.25-.57.57.25.57.57.57Z"/>
    <path class="cls-1" d="M22.63,56.27c-.31,0-.57.25-.57.57s.25.57.57.57.57-.25.57-.57-.25-.57-.57-.57Z"/>
    <path class="cls-1" d="M21.48,58.43c.31,0,.57-.25.57-.57s-.25-.57-.57-.57-.57.25-.57.57.25.57.57.57Z"/>
    <path class="cls-1" d="M22.06,54.5c-.31,0-.57.25-.57.57s.25.57.57.57.57-.25.57-.57-.25-.57-.57-.57Z"/>
    <circle class="cls-1" cx="19.96" cy="54.81" r=".57"/>
    <path class="cls-1" d="M19.4,56.45c-.31,0-.57.25-.57.57s.25.57.57.57.57-.25.57-.57-.25-.57-.57-.57Z"/>
    <path class="cls-1" d="M22.59,61.27c.31,0,.57-.25.57-.57s-.25-.57-.57-.57-.57.25-.57.57.25.57.57.57Z"/>
    <path class="cls-1" d="M26.19,61.31c.31,0,.57-.25.57-.57s-.25-.57-.57-.57-.57.25-.57.57.25.57.57.57Z"/>
    <path class="cls-1" d="M29.22,60.98c0-.31-.25-.57-.57-.57s-.57.25-.57.57.25.57.57.57.57-.25.57-.57Z"/>
    <path class="cls-1" d="M28.11,61.87c-.31,0-.57.25-.57.57s.25.57.57.57.57-.25.57-.57-.25-.57-.57-.57Z"/>
    <path class="cls-1" d="M21.44,59.95c0-.31-.25-.57-.57-.57s-.57.25-.57.57.25.57.57.57.57-.25.57-.57Z"/>
    <path class="cls-1" d="M44.49,51.71c.31,0,.57-.25.57-.57s-.25-.57-.57-.57-.57.25-.57.57.25.57.57.57Z"/>
    <path class="cls-1" d="M45.6,52.5c0-.31-.25-.57-.57-.57s-.57.25-.57.57.25.57.57.57.57-.25.57-.57Z"/>
    <path class="cls-1" d="M46.59,50.31c0-.31-.25-.57-.57-.57s-.57.25-.57.57.25.57.57.57.57-.25.57-.57Z"/>
    <path class="cls-1" d="M47.2,49.96c.31,0,.57-.25.57-.57s-.25-.57-.57-.57-.57.25-.57.57.25.57.57.57Z"/>
    <path class="cls-1" d="M51,48.38c0-.31-.25-.57-.57-.57s-.57.25-.57.57.25.57.57.57.57-.25.57-.57Z"/>
    <path class="cls-1" d="M49.51,48.1c0-.31-.25-.57-.57-.57s-.57.25-.57.57.25.57.57.57.57-.25.57-.57Z"/>
    <path class="cls-1" d="M49.82,50.05c.31,0,.57-.25.57-.57s-.25-.57-.57-.57-.57.25-.57.57.25.57.57.57Z"/>
    <path class="cls-1" d="M49.7,50.46c0-.31-.25-.57-.57-.57s-.57.25-.57.57c0,.08.02.16.05.23-.1-.1-.24-.17-.4-.17-.08,0-.16.02-.23.05,0-.02,0-.03,0-.05,0-.31-.25-.57-.57-.57s-.57.25-.57.57c0,.19.09.36.24.46-.04,0-.08-.01-.12-.01-.31,0-.57.25-.57.57s.25.57.57.57.57-.25.57-.57c0-.19-.09-.36-.24-.46.04,0,.08.01.12.01.08,0,.16-.02.23-.05,0,.02,0,.03,0,.05,0,.31.25.57.57.57s.57-.25.57-.57c0-.08-.02-.16-.05-.23.1.1.24.17.4.17.31,0,.57-.25.57-.57Z"/>
    <path class="cls-1" d="M46.36,51.53c0-.31-.25-.57-.57-.57s-.57.25-.57.57.25.57.57.57.57-.25.57-.57Z"/>
    <path class="cls-1" d="M44.06,49.74c0-.31-.25-.57-.57-.57s-.57.25-.57.57.25.57.57.57.57-.25.57-.57Z"/>
    <path class="cls-1" d="M44.2,52.06c0-.31-.25-.57-.57-.57s-.57.25-.57.57.25.57.57.57.57-.25.57-.57Z"/>
    <path class="cls-1" d="M43.37,52.98c0-.31-.25-.57-.57-.57s-.57.25-.57.57.25.57.57.57.57-.25.57-.57Z"/>
    <path class="cls-1" d="M41.27,51.73c0-.31-.25-.57-.57-.57s-.57.25-.57.57.25.57.57.57.57-.25.57-.57Z"/>
    <path class="cls-1" d="M42.11,52.91c0-.31-.25-.57-.57-.57s-.57.25-.57.57.25.57.57.57.57-.25.57-.57Z"/>
    <path class="cls-1" d="M42.54,51.53c0-.31-.25-.57-.57-.57s-.57.25-.57.57.25.57.57.57.57-.25.57-.57Z"/>
    <path class="cls-1" d="M43.13,51.47c.31,0,.57-.25.57-.57s-.25-.57-.57-.57-.57.25-.57.57.25.57.57.57Z"/>
    <path class="cls-1" d="M44.08,53.82c.31,0,.57-.25.57-.57s-.25-.57-.57-.57-.57.25-.57.57.25.57.57.57Z"/>
    <path class="cls-1" d="M39.55,55.79c.31,0,.57-.25.57-.57s-.25-.57-.57-.57-.57.25-.57.57.25.57.57.57Z"/>
    <path class="cls-1" d="M39.67,53.43c-.31,0-.57.25-.57.57s.25.57.57.57.57-.25.57-.57-.25-.57-.57-.57Z"/>
    <path class="cls-1" d="M40.96,53.39c-.31,0-.57.25-.57.57s.25.57.57.57.57-.25.57-.57-.25-.57-.57-.57Z"/>
    <path class="cls-1" d="M42.14,53.72c-.31,0-.57.25-.57.57s.25.57.57.57.57-.25.57-.57-.25-.57-.57-.57Z"/>
    <circle class="cls-1" cx="42.11" cy="55.47" r=".57"/>
    <path class="cls-1" d="M42.6,56.73c0-.31-.25-.57-.57-.57s-.57.25-.57.57.25.57.57.57.57-.25.57-.57Z"/>
    <path class="cls-1" d="M41.01,56.74c.31,0,.57-.25.57-.57,0-.25-.17-.47-.4-.54.12-.1.2-.26.2-.43,0-.31-.25-.57-.57-.57s-.57.25-.57.57c0,.25.17.47.4.54-.12.1-.2.26-.2.43,0,.31.25.57.57.57Z"/>
    <path class="cls-1" d="M41.72,57.47c0-.31-.25-.57-.57-.57s-.57.25-.57.57.25.57.57.57.57-.25.57-.57Z"/>
    <path class="cls-1" d="M40.87,58.02c-.31,0-.57.25-.57.57s.25.57.57.57.57-.25.57-.57-.25-.57-.57-.57Z"/>
    <path class="cls-1" d="M54.88,51.03c.31,0,.57-.25.57-.57s-.25-.57-.57-.57-.57.25-.57.57.25.57.57.57Z"/>
    <path class="cls-1" d="M54.05,50.17c.31,0,.57-.25.57-.57s-.25-.57-.57-.57-.57.25-.57.57.25.57.57.57Z"/>
    <path class="cls-1" d="M52.57,50.58c.31,0,.57-.25.57-.57s-.25-.57-.57-.57-.57.25-.57.57.25.57.57.57Z"/>
    <path class="cls-1" d="M50.43,50.21c-.31,0-.57.25-.57.57,0,.23.14.44.34.52-.1.08-.18.19-.21.33-.02-.3-.26-.53-.56-.53s-.57.25-.57.57.25.57.57.57c.27,0,.5-.19.55-.44.02.3.26.53.56.53s.57-.25.57-.57c0-.23-.14-.44-.34-.52.14-.1.23-.27.23-.45,0-.31-.25-.57-.57-.57Z"/>
    <path class="cls-1" d="M51.76,49.42c0-.31-.25-.57-.57-.57s-.57.25-.57.57.25.57.57.57.57-.25.57-.57Z"/>
    <path class="cls-1" d="M53.55,48.81c0-.31-.25-.57-.57-.57s-.57.25-.57.57.25.57.57.57.57-.25.57-.57Z"/>
    <circle class="cls-1" cx="54.19" cy="48.31" r=".57"/>
    <path class="cls-1" d="M52.34,48.12c0-.31-.25-.57-.57-.57s-.57.25-.57.57.25.57.57.57.57-.25.57-.57Z"/>
    <path class="cls-1" d="M57.86,48.21c-.31,0-.57.25-.57.57s.25.57.57.57.57-.25.57-.57-.25-.57-.57-.57Z"/>
    <circle class="cls-1" cx="56.53" cy="48.49" r=".57"/>
    <path class="cls-1" d="M57.94,46.81c-.31,0-.57.25-.57.57s.25.57.57.57.57-.25.57-.57-.25-.57-.57-.57Z"/>
    <path class="cls-1" d="M55.79,47.58c0-.31-.25-.57-.57-.57s-.57.25-.57.57.25.57.57.57.57-.25.57-.57Z"/>
    <path class="cls-1" d="M56.67,46.68c-.31,0-.57.25-.57.57s.25.57.57.57.57-.25.57-.57-.25-.57-.57-.57Z"/>
    <path class="cls-1" d="M59.06,47.47c.31,0,.57-.25.57-.57s-.25-.57-.57-.57-.57.25-.57.57.25.57.57.57Z"/>
    <circle class="cls-1" cx="57.81" cy="45.9" r=".57"/>
    <path class="cls-1" d="M56.34,45.07c0,.31.25.57.57.57s.57-.25.57-.57-.25-.57-.57-.57-.57.25-.57.57Z"/>
    <path class="cls-1" d="M57.32,43.36c-.31,0-.57.25-.57.57s.25.57.57.57.57-.25.57-.57-.25-.57-.57-.57Z"/>
    <path class="cls-1" d="M56.6,46.06c0-.31-.25-.57-.57-.57s-.57.25-.57.57.25.57.57.57.57-.25.57-.57Z"/>
    <path class="cls-1" d="M51.73,45.53c.31,0,.57-.25.57-.57s-.25-.57-.57-.57-.57.25-.57.57.25.57.57.57Z"/>
    <path class="cls-1" d="M52.83,44.52c0,.31.25.57.57.57s.57-.25.57-.57-.25-.57-.57-.57-.57.25-.57.57Z"/>
    <circle class="cls-1" cx="53.07" cy="47.37" r=".57"/>
    <path class="cls-1" d="M51.84,47.19c.31,0,.57-.25.57-.57s-.25-.57-.57-.57-.57.25-.57.57.25.57.57.57Z"/>
    <path class="cls-1" d="M48.66,46.86c0-.31-.25-.57-.57-.57s-.57.25-.57.57.25.57.57.57.57-.25.57-.57Z"/>
    <path class="cls-1" d="M50.04,47.65c.31,0,.57-.25.57-.57s-.25-.57-.57-.57-.57.25-.57.57.25.57.57.57Z"/>
    <path class="cls-1" d="M47.45,43.27c-.31,0-.57.25-.57.57s.25.57.57.57.57-.25.57-.57-.25-.57-.57-.57Z"/>
    <path class="cls-1" d="M48.51,44.09c0,.31.25.57.57.57s.57-.25.57-.57-.25-.57-.57-.57-.57.25-.57.57Z"/>
    <path class="cls-1" d="M44.63,44.08c0-.31-.25-.57-.57-.57s-.57.25-.57.57.25.57.57.57.57-.25.57-.57Z"/>
    <circle class="cls-1" cx="45.99" cy="43.31" r=".57"/>
    <path class="cls-1" d="M45.44,39.35c-.31,0-.57.25-.57.57s.25.57.57.57.57-.25.57-.57-.25-.57-.57-.57Z"/>
    <path class="cls-1" d="M47.49,41.61c-.31,0-.57.25-.57.57s.25.57.57.57.57-.25.57-.57-.25-.57-.57-.57Z"/>
    <path class="cls-1" d="M41.47,41.31c0,.31.25.57.57.57s.57-.25.57-.57-.25-.57-.57-.57-.57.25-.57.57Z"/>
    <path class="cls-1" d="M42.92,43.1c0-.31-.25-.57-.57-.57s-.57.25-.57.57.25.57.57.57.57-.25.57-.57Z"/>
    <path class="cls-1" d="M40.26,41.87c-.31,0-.57.25-.57.57s.25.57.57.57.57-.25.57-.57-.25-.57-.57-.57Z"/>
    <path class="cls-1" d="M40.53,40.8c0-.31-.25-.57-.57-.57s-.57.25-.57.57.25.57.57.57.57-.25.57-.57Z"/>
    <path class="cls-1" d="M37.38,37.2c0,.31.25.57.57.57s.57-.25.57-.57-.25-.57-.57-.57-.57.25-.57.57Z"/>
    <path class="cls-1" d="M40.8,39.43c0,.31.25.57.57.57s.57-.25.57-.57-.25-.57-.57-.57-.57.25-.57.57Z"/>
    <path class="cls-1" d="M45.12,38.55c0-.31-.25-.57-.57-.57s-.57.25-.57.57.25.57.57.57.57-.25.57-.57Z"/>
    <path class="cls-1" d="M45.69,36.61c-.31,0-.57.25-.57.57s.25.57.57.57.57-.25.57-.57-.25-.57-.57-.57Z"/>
    <path class="cls-1" d="M46.65,37.65c0,.31.25.57.57.57s.57-.25.57-.57-.25-.57-.57-.57-.57.25-.57.57Z"/>
    <path class="cls-1" d="M49.33,39.55c-.31,0-.57.25-.57.57s.25.57.57.57.57-.25.57-.57-.25-.57-.57-.57Z"/>
    <path class="cls-1" d="M52.85,40.95c0-.31-.25-.57-.57-.57s-.57.25-.57.57.25.57.57.57.57-.25.57-.57Z"/>
    <path class="cls-1" d="M57.08,41.54c0-.31-.25-.57-.57-.57s-.57.25-.57.57.25.57.57.57.57-.25.57-.57Z"/>
    <path class="cls-1" d="M55.77,41.5c0-.31-.25-.57-.57-.57s-.57.25-.57.57.25.57.57.57.57-.25.57-.57Z"/>
    <path class="cls-1" d="M58.89,44.6c0-.31-.25-.57-.57-.57s-.57.25-.57.57.25.57.57.57.57-.25.57-.57Z"/>
    <path class="cls-1" d="M53.08,38.57c0-.31-.25-.57-.57-.57s-.57.25-.57.57.25.57.57.57.57-.25.57-.57Z"/>
    <path class="cls-1" d="M52.43,36.63c-.31,0-.57.25-.57.57s.25.57.57.57.57-.25.57-.57-.25-.57-.57-.57Z"/>
    <path class="cls-1" d="M53.03,40.32c.31,0,.57-.25.57-.57s-.25-.57-.57-.57-.57.25-.57.57.25.57.57.57Z"/>
    <path class="cls-1" d="M54.02,38.23c-.31,0-.57.25-.57.57s.25.57.57.57.57-.25.57-.57-.25-.57-.57-.57Z"/>
    <path class="cls-1" d="M51.62,37.91c0-.31-.25-.57-.57-.57s-.57.25-.57.57.25.57.57.57.57-.25.57-.57Z"/>
    <path class="cls-1" d="M50.18,37.37c0-.31-.25-.57-.57-.57s-.57.25-.57.57.25.57.57.57.57-.25.57-.57Z"/>
    <circle class="cls-1" cx="50.92" cy="36.45" r=".57"/>
    <path class="cls-1" d="M48.83,36.58c0-.31-.25-.57-.57-.57s-.57.25-.57.57.25.57.57.57.57-.25.57-.57Z"/>
    <path class="cls-1" d="M47.24,35.09c0,.31.25.57.57.57s.57-.25.57-.57-.25-.57-.57-.57-.57.25-.57.57Z"/>
    <path class="cls-1" d="M49.02,35.93c0,.31.25.57.57.57s.57-.25.57-.57-.25-.57-.57-.57-.57.25-.57.57Z"/>
    <path class="cls-1" d="M45.86,34.2c-.31,0-.57.25-.57.57s.25.57.57.57.57-.25.57-.57-.25-.57-.57-.57Z"/>
    <path class="cls-1" d="M49.21,34.2c-.31,0-.57.25-.57.57s.25.57.57.57.57-.25.57-.57-.25-.57-.57-.57Z"/>
    <path class="cls-1" d="M52.17,35.28c-.31,0-.57.25-.57.57s.25.57.57.57.57-.25.57-.57-.25-.57-.57-.57Z"/>
    <path class="cls-1" d="M43.6,40.68c0,.31.25.57.57.57s.57-.25.57-.57-.25-.57-.57-.57-.57.25-.57.57Z"/>
    <path class="cls-1" d="M43,39.43c-.31,0-.57.25-.57.57s.25.57.57.57.57-.25.57-.57-.25-.57-.57-.57Z"/>
    <path class="cls-1" d="M49.89,41.41c0-.31-.25-.57-.57-.57s-.57.25-.57.57.25.57.57.57.57-.25.57-.57Z"/>
    <path class="cls-1" d="M46.99,40.95c0-.31-.25-.57-.57-.57s-.57.25-.57.57.25.57.57.57.57-.25.57-.57Z"/>
    <path class="cls-1" d="M48.35,40.71c0-.31-.25-.57-.57-.57s-.57.25-.57.57.25.57.57.57.57-.25.57-.57Z"/>
    <path class="cls-1" d="M45.95,41.95c0-.31-.25-.57-.57-.57s-.57.25-.57.57.25.57.57.57.57-.25.57-.57Z"/>
    <path class="cls-1" d="M43.11,42.41c0,.31.25.57.57.57s.57-.25.57-.57-.25-.57-.57-.57-.57.25-.57.57Z"/>
    <path class="cls-1" d="M37.89,42.38c0,.31.25.57.57.57s.57-.25.57-.57-.25-.57-.57-.57-.57.25-.57.57Z"/>
    <circle class="cls-1" cx="37.58" cy="44.52" r=".57"/>
    <path class="cls-1" d="M36.48,43.36c.31,0,.57-.25.57-.57s-.25-.57-.57-.57-.57.25-.57.57.25.57.57.57Z"/>
    <path class="cls-1" d="M33.45,44.09c-.31,0-.57.25-.57.57s.25.57.57.57.57-.25.57-.57-.25-.57-.57-.57Z"/>
    <path class="cls-1" d="M35.74,45.39c.31,0,.57-.25.57-.57s-.25-.57-.57-.57-.57.25-.57.57.25.57.57.57Z"/>
    <path class="cls-1" d="M33.42,42.33c0,.31.25.57.57.57s.57-.25.57-.57-.25-.57-.57-.57-.57.25-.57.57Z"/>
    <path class="cls-1" d="M38.69,45.1c0,.31.25.57.57.57s.57-.25.57-.57-.25-.57-.57-.57-.57.25-.57.57Z"/>
    <circle class="cls-1" cx="40.42" cy="43.82" r=".57"/>
    <path class="cls-1" d="M41.79,45.45c.31,0,.57-.25.57-.57s-.25-.57-.57-.57-.57.25-.57.57.25.57.57.57Z"/>
    <path class="cls-1" d="M48.81,43.31c.31,0,.57-.25.57-.57s-.25-.57-.57-.57-.57.25-.57.57.25.57.57.57Z"/>
    <path class="cls-1" d="M55,46.53c0-.31-.25-.57-.57-.57s-.57.25-.57.57.25.57.57.57.57-.25.57-.57Z"/>
    <path class="cls-1" d="M54.42,41.82c-.31,0-.57.25-.57.57s.25.57.57.57.57-.25.57-.57-.25-.57-.57-.57Z"/>
    <path class="cls-1" d="M53.24,42.29c-.31,0-.57.25-.57.57s.25.57.57.57.57-.25.57-.57-.25-.57-.57-.57Z"/>
    <path class="cls-1" d="M52.69,43.7c0-.31-.25-.57-.57-.57s-.57.25-.57.57.25.57.57.57.57-.25.57-.57Z"/>
    <path class="cls-1" d="M49.95,43.85c0,.31.25.57.57.57s.57-.25.57-.57-.25-.57-.57-.57-.57.25-.57.57Z"/>
    <circle class="cls-1" cx="50.77" cy="40.82" r=".57"/>
    <path class="cls-1" d="M50.43,41.86c-.31,0-.57.25-.57.57s.25.57.57.57.57-.25.57-.57-.25-.57-.57-.57Z"/>
    <path class="cls-1" d="M56.11,43.42c-.31,0-.57.25-.57.57s.25.57.57.57.57-.25.57-.57-.25-.57-.57-.57Z"/>
    <path class="cls-1" d="M54.58,43.22c-.31,0-.57.25-.57.57s.25.57.57.57.57-.25.57-.57-.25-.57-.57-.57Z"/>
    <circle class="cls-1" cx="54.73" cy="45.03" r=".57"/>
    <path class="cls-1" d="M65.76,43.77c.31,0,.57-.25.57-.57s-.25-.57-.57-.57-.57.25-.57.57.25.57.57.57Z"/>
    <path class="cls-1" d="M64.01,38.53c.31,0,.57-.25.57-.57s-.25-.57-.57-.57-.57.25-.57.57.25.57.57.57Z"/>
    <path class="cls-1" d="M54.8,40.44c0-.31-.25-.57-.57-.57s-.57.25-.57.57.25.57.57.57.57-.25.57-.57Z"/>
    <path class="cls-1" d="M54.05,41.47c0-.31-.25-.57-.57-.57s-.57.25-.57.57.25.57.57.57.57-.25.57-.57Z"/>
    <path class="cls-1" d="M55.64,39.58c0-.31-.25-.57-.57-.57s-.57.25-.57.57.25.57.57.57.57-.25.57-.57Z"/>
    <path class="cls-1" d="M63.48,37.38c.24,0,.45-.15.53-.37.07.03.15.05.23.05.31,0,.57-.25.57-.57s-.25-.57-.57-.57c-.24,0-.45.15-.53.37-.07-.03-.15-.05-.23-.05-.17,0-.32.08-.42.19.01-.05.02-.1.02-.16,0-.2-.11-.38-.27-.48.1-.1.16-.24.16-.39,0-.23-.14-.43-.34-.52.03,0,.06,0,.09,0,.31,0,.57-.25.57-.57s-.25-.57-.57-.57-.56.25-.57.56c-.04-.27-.27-.48-.56-.48-.31,0-.57.25-.57.57s.25.57.57.57.56-.25.57-.56c.03.2.16.36.34.44-.03,0-.06,0-.09,0-.31,0-.56.25-.57.56-.06-.26-.28-.45-.55-.45-.31,0-.57.25-.57.57,0,.28.2.5.46.56-.19.09-.31.28-.31.5,0,.27.18.49.43.55-.22.08-.37.29-.37.53,0,.31.25.57.57.57s.57-.25.57-.57c0-.27-.18-.49-.43-.55.22-.08.37-.29.37-.53,0-.04,0-.07-.01-.11.08.22.29.38.53.38.17,0,.32-.08.42-.19-.01.05-.02.1-.02.16,0,.31.25.57.57.57ZM61.95,36.28s0,.07.01.11c-.07-.18-.22-.33-.42-.36.18-.09.31-.28.31-.5.03.15.13.28.26.36-.1.1-.16.24-.16.39Z"/>
    <path class="cls-1" d="M58.86,36.96c0-.31-.25-.57-.57-.57s-.57.25-.57.57.25.57.57.57.57-.25.57-.57Z"/>
    <path class="cls-1" d="M56.93,34.67c.31,0,.57-.25.57-.57s-.25-.57-.57-.57-.57.25-.57.57.25.57.57.57Z"/>
    <circle class="cls-1" cx="55.77" cy="34.17" r=".57"/>
    <path class="cls-1" d="M58.03,33.95c-.31,0-.57.25-.57.57s.25.57.57.57.57-.25.57-.57-.25-.57-.57-.57Z"/>
    <path class="cls-1" d="M59.62,35.39c0-.31-.25-.57-.57-.57s-.57.25-.57.57.25.57.57.57.57-.25.57-.57Z"/>
    <path class="cls-1" d="M58.5,35.66c0-.31-.25-.57-.57-.57s-.57.25-.57.57c0,.14.05.26.13.36-.08-.04-.17-.07-.26-.07-.31,0-.56.25-.57.55-.1-.14-.27-.24-.46-.24-.31,0-.57.25-.57.57s.25.57.57.57.56-.25.57-.55c.1.14.27.24.46.24.31,0,.57-.25.57-.57,0-.14-.05-.26-.13-.36.08.04.17.07.26.07.31,0,.57-.25.57-.57Z"/>
    <path class="cls-1" d="M52.99,36.14c0,.31.25.57.57.57s.57-.25.57-.57-.25-.57-.57-.57-.57.25-.57.57Z"/>
    <path class="cls-1" d="M54.36,35.48c.31,0,.57-.25.57-.57s-.25-.57-.57-.57-.57.25-.57.57.25.57.57.57Z"/>
    <path class="cls-1" d="M54.91,36.74c.31,0,.57-.25.57-.57s-.25-.57-.57-.57-.57.25-.57.57.25.57.57.57Z"/>
    <path class="cls-1" d="M56.14,35.75c.1.18.28.3.5.3.31,0,.57-.25.57-.57s-.25-.57-.57-.57c-.16,0-.31.07-.41.18-.1-.18-.28-.3-.5-.3-.31,0-.57.25-.57.57s.25.57.57.57c.16,0,.31-.07.41-.18Z"/>
    <path class="cls-1" d="M54.38,37.56c0-.31-.25-.57-.57-.57s-.57.25-.57.57.25.57.57.57.57-.25.57-.57Z"/>
    <path class="cls-1" d="M52.49,34.95c0,.31.25.57.57.57s.57-.25.57-.57-.25-.57-.57-.57-.57.25-.57.57Z"/>
    <path class="cls-1" d="M53.43,34.29c.31,0,.57-.25.57-.57s-.25-.57-.57-.57-.57.25-.57.57.25.57.57.57Z"/>
    <path class="cls-1" d="M51.44,35.08c0-.31-.25-.57-.57-.57s-.57.25-.57.57.25.57.57.57.57-.25.57-.57Z"/>
    <path class="cls-1" d="M52.02,33.62c-.31,0-.57.25-.57.57s.25.57.57.57.57-.25.57-.57-.25-.57-.57-.57Z"/>
    <path class="cls-1" d="M55.59,37.47c0-.31-.25-.57-.57-.57s-.57.25-.57.57.25.57.57.57.57-.25.57-.57Z"/>
    <path class="cls-1" d="M58.06,37.86c0-.31-.25-.57-.57-.57s-.57.25-.57.57c0,0,0,.01,0,.02-.05-.26-.28-.45-.55-.45-.29,0-.53.23-.56.51-.07-.03-.14-.04-.21-.04-.31,0-.57.25-.57.57s.25.57.57.57c.29,0,.53-.23.56-.51.07.03.14.04.21.04.31,0,.57-.25.57-.57,0,0,0-.01,0-.02.05.25.27.44.54.45-.28.04-.49.27-.49.56,0,.31.25.57.57.57s.57-.25.57-.57-.25-.56-.55-.57c.28-.04.49-.27.49-.56Z"/>
    <path class="cls-1" d="M59.13,33.6c-.31,0-.57.25-.57.57s.25.57.57.57.57-.25.57-.57-.25-.57-.57-.57Z"/>
    <path class="cls-1" d="M60.08,33.09c0-.31-.25-.57-.57-.57s-.57.25-.57.57.25.57.57.57.57-.25.57-.57Z"/>
    <path class="cls-1" d="M58.78,33.21c0-.31-.25-.57-.57-.57s-.57.25-.57.57.25.57.57.57.57-.25.57-.57Z"/>
    <path class="cls-1" d="M59.57,31.11c-.31,0-.57.25-.57.57s.25.57.57.57.57-.25.57-.57-.25-.57-.57-.57Z"/>
    <path class="cls-1" d="M61.14,31.71c.31,0,.57-.25.57-.57s-.25-.57-.57-.57-.57.25-.57.57.25.57.57.57Z"/>
    <path class="cls-1" d="M61.47,33.76c.31,0,.57-.25.57-.57s-.25-.57-.57-.57c-.08,0-.15.02-.22.04,0-.02,0-.04,0-.06,0-.31-.25-.57-.57-.57s-.57.25-.57.57.25.57.57.57c.08,0,.15-.02.22-.04,0,.02,0,.04,0,.06,0,.31.25.57.57.57Z"/>
    <path class="cls-1" d="M63.59,35.94c.31,0,.57-.25.57-.57s-.25-.57-.57-.57-.57.25-.57.57.25.57.57.57Z"/>
    <path class="cls-1" d="M65.49,36.4c.31,0,.57-.25.57-.57s-.25-.57-.57-.57-.57.25-.57.57.25.57.57.57Z"/>
    <path class="cls-1" d="M65.21,38.51c.31,0,.57-.25.57-.57s-.25-.57-.57-.57-.57.25-.57.57.25.57.57.57Z"/>
    <path class="cls-1" d="M65.37,40.47c.31,0,.57-.25.57-.57s-.25-.57-.57-.57-.57.25-.57.57.25.57.57.57Z"/>
    <path class="cls-1" d="M56.58,32.73c0,.31.25.57.57.57s.57-.25.57-.57-.25-.57-.57-.57-.57.25-.57.57Z"/>
    <path class="cls-1" d="M57.04,31.64c0-.31-.25-.57-.57-.57s-.57.25-.57.57.25.57.57.57.57-.25.57-.57Z"/>
    <path class="cls-1" d="M55.27,32.77c0,.31.25.57.57.57s.57-.25.57-.57-.25-.57-.57-.57-.57.25-.57.57Z"/>
    <path class="cls-1" d="M54.8,32.78c.31,0,.57-.25.57-.57s-.25-.57-.57-.57-.57.25-.57.57.25.57.57.57Z"/>
    <path class="cls-1" d="M55.27,30.24c-.31,0-.57.25-.57.57s.25.57.57.57.57-.25.57-.57-.25-.57-.57-.57Z"/>
    <path class="cls-1" d="M58.76,31.94c0-.31-.25-.57-.57-.57s-.57.25-.57.57.25.57.57.57.57-.25.57-.57Z"/>
    <path class="cls-1" d="M53.46,33.01c.31,0,.57-.25.57-.57s-.25-.57-.57-.57-.57.25-.57.57.25.57.57.57Z"/>
    <path class="cls-1" d="M51.63,32.4c-.31,0-.57.25-.57.57s.25.57.57.57.57-.25.57-.57-.25-.57-.57-.57Z"/>
    <path class="cls-1" d="M52.28,31.22c-.31,0-.57.25-.57.57s.25.57.57.57.57-.25.57-.57-.25-.57-.57-.57Z"/>
    <path class="cls-1" d="M46.53,33.74c0,.31.25.57.57.57s.57-.25.57-.57-.25-.57-.57-.57-.57.25-.57.57Z"/>
    <path class="cls-1" d="M48.81,32.84c-.31,0-.57.25-.57.57s.25.57.57.57.57-.25.57-.57-.25-.57-.57-.57Z"/>
    <path class="cls-1" d="M45.8,32.73c-.31,0-.57.25-.57.57s.25.57.57.57.57-.25.57-.57-.25-.57-.57-.57Z"/>
    <path class="cls-1" d="M46.1,36.05c0,.31.25.57.57.57s.57-.25.57-.57-.25-.57-.57-.57-.57.25-.57.57Z"/>
    <path class="cls-1" d="M44.45,33.08c-.31,0-.57.25-.57.57s.25.57.57.57.57-.25.57-.57-.25-.57-.57-.57Z"/>
    <path class="cls-1" d="M44.6,35.14c-.31,0-.57.25-.57.57s.25.57.57.57.57-.25.57-.57-.25-.57-.57-.57Z"/>
    <path class="cls-1" d="M44.37,31.5c-.31,0-.57.25-.57.57s.25.57.57.57.57-.25.57-.57-.25-.57-.57-.57Z"/>
    <circle class="cls-1" cx="39.97" cy="36.14" r=".57"/>
    <path class="cls-1" d="M49.85,30.11c0,.31.25.57.57.57s.57-.25.57-.57-.25-.57-.57-.57-.57.25-.57.57Z"/>
    <path class="cls-1" d="M52.97,31.08c0,.31.25.57.57.57s.57-.25.57-.57-.25-.57-.57-.57-.57.25-.57.57Z"/>
    <path class="cls-1" d="M51.04,30.83c-.31,0-.57.25-.57.57s.25.57.57.57.57-.25.57-.57-.25-.57-.57-.57Z"/>
    <path class="cls-1" d="M43.26,36.93c0,.31.25.57.57.57s.57-.25.57-.57-.25-.57-.57-.57-.57.25-.57.57Z"/>
    <path class="cls-1" d="M39.96,38.36c.31,0,.57-.25.57-.57s-.25-.57-.57-.57-.57.25-.57.57.25.57.57.57Z"/>
    <path class="cls-1" d="M41.03,37.46c0,.31.25.57.57.57s.57-.25.57-.57-.25-.57-.57-.57-.57.25-.57.57Z"/>
    <path class="cls-1" d="M36.77,35.27c-.31,0-.57.25-.57.57s.25.57.57.57.57-.25.57-.57-.25-.57-.57-.57Z"/>
    <path class="cls-1" d="M37.73,33.25c0,.31.25.57.57.57s.57-.25.57-.57-.25-.57-.57-.57-.57.25-.57.57Z"/>
    <path class="cls-1" d="M48.85,30.78c-.31,0-.57.25-.57.57s.25.57.57.57.57-.25.57-.57-.25-.57-.57-.57Z"/>
    <path class="cls-1" d="M49.84,33.67c0,.31.25.57.57.57s.57-.25.57-.57-.25-.57-.57-.57-.57.25-.57.57Z"/>
    <path class="cls-1" d="M54.23,29.31c-.31,0-.57.25-.57.57s.25.57.57.57.57-.25.57-.57-.25-.57-.57-.57Z"/>
    <path class="cls-1" d="M59.94,29.79c0,.31.25.57.57.57s.57-.25.57-.57-.25-.57-.57-.57-.57.25-.57.57Z"/>
    <path class="cls-1" d="M56.57,29.67c-.31,0-.57.25-.57.57s.25.57.57.57.57-.25.57-.57-.25-.57-.57-.57Z"/>
    <path class="cls-1" d="M46.14,32.35c.31,0,.57-.25.57-.57s-.25-.57-.57-.57-.57.25-.57.57.25.57.57.57Z"/>
    <path class="cls-1" d="M47.65,31.64c-.31,0-.57.25-.57.57s.25.57.57.57.57-.25.57-.57-.25-.57-.57-.57Z"/>
    <path class="cls-1" d="M46.9,31.02c.31,0,.57-.25.57-.57s-.25-.57-.57-.57-.57.25-.57.57.25.57.57.57Z"/>
    <path class="cls-1" d="M48.32,29.94c0,.31.25.57.57.57s.57-.25.57-.57-.25-.57-.57-.57-.57.25-.57.57Z"/>
    <path class="cls-1" d="M62.09,31.82c0,.31.25.57.57.57s.57-.25.57-.57-.25-.57-.57-.57-.57.25-.57.57Z"/>
    <path class="cls-1" d="M62.38,33.12c0,.31.25.57.57.57s.57-.25.57-.57-.25-.57-.57-.57-.57.25-.57.57Z"/>
    <path class="cls-1" d="M58.53,30.34c0,.31.25.57.57.57s.57-.25.57-.57-.25-.57-.57-.57-.57.25-.57.57Z"/>
    <path class="cls-1" d="M57.74,31.35c.31,0,.57-.25.57-.57s-.25-.57-.57-.57-.57.25-.57.57.25.57.57.57Z"/>
    <path class="cls-1" d="M57.87,29.93c.31,0,.57-.25.57-.57s-.25-.57-.57-.57-.57.25-.57.57.25.57.57.57Z"/>
    <path class="cls-1" d="M55.44,28.84c-.31,0-.57.25-.57.57s.25.57.57.57.57-.25.57-.57-.25-.57-.57-.57Z"/>
    <path class="cls-1" d="M60,28.57c0-.31-.25-.57-.57-.57s-.57.25-.57.57.25.57.57.57.57-.25.57-.57Z"/>
    <path class="cls-1" d="M61.34,28.81c.31,0,.57-.25.57-.57s-.25-.57-.57-.57-.57.25-.57.57.25.57.57.57Z"/>
    <path class="cls-1" d="M56.09,28.64c0,.31.25.57.57.57s.57-.25.57-.57-.25-.57-.57-.57-.57.25-.57.57Z"/>
    <path class="cls-1" d="M55.79,26.99c0,.31.25.57.57.57s.57-.25.57-.57-.25-.57-.57-.57-.57.25-.57.57Z"/>
    <path class="cls-1" d="M55.19,27.47c-.31,0-.57.25-.57.57s.25.57.57.57.57-.25.57-.57-.25-.57-.57-.57Z"/>
    <path class="cls-1" d="M58.17,25.4c-.31,0-.57.25-.57.57s.25.57.57.57.57-.25.57-.57-.25-.57-.57-.57Z"/>
    <path class="cls-1" d="M53.24,28.04c0,.31.25.57.57.57s.57-.25.57-.57-.25-.57-.57-.57-.57.25-.57.57Z"/>
    <path class="cls-1" d="M52.53,29.21c0,.31.25.57.57.57s.57-.25.57-.57-.25-.57-.57-.57-.57.25-.57.57Z"/>
    <path class="cls-1" d="M52.13,29.71c-.31,0-.57.25-.57.57s.25.57.57.57.57-.25.57-.57-.25-.57-.57-.57Z"/>
    <path class="cls-1" d="M54.23,26.01c-.31,0-.57.25-.57.57s.25.57.57.57.57-.25.57-.57-.25-.57-.57-.57Z"/>
    <path class="cls-1" d="M51.23,28.18c-.31,0-.57.25-.57.57s.25.57.57.57.57-.25.57-.57-.25-.57-.57-.57Z"/>
    <path class="cls-1" d="M49.59,28.14c-.31,0-.57.25-.57.57s.25.57.57.57.57-.25.57-.57-.25-.57-.57-.57Z"/>
    <path class="cls-1" d="M52.37,27.32c-.31,0-.57.25-.57.57s.25.57.57.57.57-.25.57-.57-.25-.57-.57-.57Z"/>
    <path class="cls-1" d="M52.58,27.08c.31,0,.57-.25.57-.57s-.25-.57-.57-.57-.57.25-.57.57.25.57.57.57Z"/>
    <path class="cls-1" d="M50.11,27.32c0,.31.25.57.57.57s.57-.25.57-.57-.25-.57-.57-.57-.57.25-.57.57Z"/>
    <circle class="cls-1" cx="47.47" cy="27.57" r=".57"/>
    <path class="cls-1" d="M47.77,28.5c-.31,0-.57.25-.57.57s.25.57.57.57.57-.25.57-.57-.25-.57-.57-.57Z"/>
    <path class="cls-1" d="M44.79,29.47c-.31,0-.57.25-.57.57s.25.57.57.57.57-.25.57-.57-.25-.57-.57-.57Z"/>
    <path class="cls-1" d="M47.97,25.13c-.31,0-.57.25-.57.57s.25.57.57.57.57-.25.57-.57-.25-.57-.57-.57Z"/>
    <path class="cls-1" d="M55.62,25.39c0,.31.25.57.57.57s.57-.25.57-.57-.25-.57-.57-.57-.57.25-.57.57Z"/>
    <path class="cls-1" d="M55.09,24.97c.31,0,.57-.25.57-.57s-.25-.57-.57-.57-.57.25-.57.57.25.57.57.57Z"/>
    <path class="cls-1" d="M59.15,25.14c0,.31.25.57.57.57s.57-.25.57-.57-.25-.57-.57-.57-.57.25-.57.57Z"/>
    <path class="cls-1" d="M59.82,26.21c-.31,0-.57.25-.57.57s.25.57.57.57.57-.25.57-.57-.25-.57-.57-.57Z"/>
    <path class="cls-1" d="M57.39,27.9c0,.31.25.57.57.57s.57-.25.57-.57-.25-.57-.57-.57-.57.25-.57.57Z"/>
    <path class="cls-1" d="M61.84,30.17c0,.31.25.57.57.57s.57-.25.57-.57-.25-.57-.57-.57-.57.25-.57.57Z"/>
    <path class="cls-1" d="M53.1,25.6c.31,0,.57-.25.57-.57s-.25-.57-.57-.57-.57.25-.57.57.25.57.57.57Z"/>
    <path class="cls-1" d="M51.52,25.07c-.31,0-.57.25-.57.57s.25.57.57.57.57-.25.57-.57-.25-.57-.57-.57Z"/>
    <path class="cls-1" d="M49.82,25.56c.31,0,.57-.25.57-.57s-.25-.57-.57-.57-.57.25-.57.57.25.57.57.57Z"/>
    <path class="cls-1" d="M49.16,26.22c-.31,0-.57.25-.57.57s.25.57.57.57.57-.25.57-.57-.25-.57-.57-.57Z"/>
    <path class="cls-1" d="M40.63,34.31c0,.31.25.57.57.57s.57-.25.57-.57-.25-.57-.57-.57-.57.25-.57.57Z"/>
    <path class="cls-1" d="M42.59,32.78c-.31,0-.57.25-.57.57s.25.57.57.57.57-.25.57-.57-.25-.57-.57-.57Z"/>
    <path class="cls-1" d="M40.18,32.34c-.31,0-.57.25-.57.57s.25.57.57.57.57-.25.57-.57-.25-.57-.57-.57Z"/>
    <circle class="cls-1" cx="43.13" cy="30.59" r=".57"/>
    <path class="cls-1" d="M43.88,29.35c.31,0,.57-.25.57-.57s-.25-.57-.57-.57-.57.25-.57.57.25.57.57.57Z"/>
    <circle class="cls-1" cx="45.07" cy="27.54" r=".57"/>
    <path class="cls-1" d="M40.41,30.46c0,.31.25.57.57.57s.57-.25.57-.57-.25-.57-.57-.57-.57.25-.57.57Z"/>
    <path class="cls-1" d="M38.89,31.35c0,.31.25.57.57.57s.57-.25.57-.57-.25-.57-.57-.57-.57.25-.57.57Z"/>
    <path class="cls-1" d="M42.04,31.38c-.31,0-.57.25-.57.57s.25.57.57.57.57-.25.57-.57-.25-.57-.57-.57Z"/>
    <path class="cls-1" d="M38.06,35.08c0,.31.25.57.57.57s.57-.25.57-.57-.25-.57-.57-.57-.57.25-.57.57Z"/>
    <path class="cls-1" d="M46.82,28.95c0-.31-.25-.57-.57-.57s-.57.25-.57.57.25.57.57.57.57-.25.57-.57Z"/>
    <path class="cls-1" d="M44,26.93c.31,0,.57-.25.57-.57s-.25-.57-.57-.57-.57.25-.57.57.25.57.57.57Z"/>
    <path class="cls-1" d="M45.68,26.07c0,.31.25.57.57.57s.57-.25.57-.57-.25-.57-.57-.57-.57.25-.57.57Z"/>
    <path class="cls-1" d="M41.31,29.1c0,.31.25.57.57.57s.57-.25.57-.57-.25-.57-.57-.57-.57.25-.57.57Z"/>
    <circle class="cls-1" cx="50.59" cy="21.48" r=".57"/>
    <path class="cls-1" d="M51.33,22.45c-.31,0-.57.25-.57.57s.25.57.57.57.57-.25.57-.57-.25-.57-.57-.57Z"/>
    <path class="cls-1" d="M48.79,22.89c-.31,0-.57.25-.57.57s.25.57.57.57.57-.25.57-.57-.25-.57-.57-.57Z"/>
    <path class="cls-1" d="M46.49,23.42c-.31,0-.57.25-.57.57s.25.57.57.57.57-.25.57-.57-.25-.57-.57-.57Z"/>
    <path class="cls-1" d="M43.61,20.94c-.31,0-.57.25-.57.57s.25.57.57.57.57-.25.57-.57-.25-.57-.57-.57Z"/>
    <path class="cls-1" d="M53.27,22.07c.31,0,.57-.25.57-.57s-.25-.57-.57-.57-.57.25-.57.57.25.57.57.57Z"/>
    <path class="cls-1" d="M53.17,23.8c.31,0,.57-.25.57-.57s-.25-.57-.57-.57-.57.25-.57.57.25.57.57.57Z"/>
    <path class="cls-1" d="M41.95,27.16c0,.31.25.57.57.57s.57-.25.57-.57-.25-.57-.57-.57-.57.25-.57.57Z"/>
    <path class="cls-1" d="M40.81,27.6c0-.31-.25-.57-.57-.57s-.57.25-.57.57.25.57.57.57.57-.25.57-.57Z"/>
    <path class="cls-1" d="M46.02,22.73c.31,0,.57-.25.57-.57s-.25-.57-.57-.57-.57.25-.57.57.25.57.57.57Z"/>
    <path class="cls-1" d="M47.45,20.06c.31,0,.57-.25.57-.57s-.25-.57-.57-.57-.57.25-.57.57.25.57.57.57Z"/>
    <path class="cls-1" d="M48.07,21.37c0,.31.25.57.57.57s.57-.25.57-.57-.25-.57-.57-.57-.57.25-.57.57Z"/>
    <path class="cls-1" d="M42.47,23.76c0,.31.25.57.57.57s.57-.25.57-.57-.25-.57-.57-.57-.57.25-.57.57Z"/>
    <path class="cls-1" d="M44.68,23.95c-.31,0-.57.25-.57.57s.25.57.57.57.57-.25.57-.57-.25-.57-.57-.57Z"/>
    <path class="cls-1" d="M38.54,23.84c.31,0,.57-.25.57-.57s-.25-.57-.57-.57-.57.25-.57.57.25.57.57.57Z"/>
    <path class="cls-1" d="M37.22,25.53c0,.31.25.57.57.57s.57-.25.57-.57-.25-.57-.57-.57-.57.25-.57.57Z"/>
    <path class="cls-1" d="M39.23,25.96c0,.31.25.57.57.57s.57-.25.57-.57-.25-.57-.57-.57-.57.25-.57.57Z"/>
    <path class="cls-1" d="M38.67,29.41c0,.31.25.57.57.57s.57-.25.57-.57-.25-.57-.57-.57-.57.25-.57.57Z"/>
    <circle class="cls-1" cx="37.47" cy="30.99" r=".57"/>
    <path class="cls-1" d="M36.45,31.99c-.31,0-.57.25-.57.57s.25.57.57.57.57-.25.57-.57-.25-.57-.57-.57Z"/>
    <path class="cls-1" d="M34.3,34.83c-.31,0-.57.25-.57.57s.25.57.57.57.57-.25.57-.57-.25-.57-.57-.57Z"/>
    <path class="cls-1" d="M35.97,37.28c-.31,0-.57.25-.57.57s.25.57.57.57.57-.25.57-.57-.25-.57-.57-.57Z"/>
    <path class="cls-1" d="M38.5,39.36c0,.31.25.57.57.57s.57-.25.57-.57-.25-.57-.57-.57-.57.25-.57.57Z"/>
    <circle class="cls-1" cx="37.38" cy="39.15" r=".57"/>
    <circle class="cls-1" cx="35.96" cy="40.47" r=".57"/>
    <path class="cls-1" d="M37.55,40.44c-.31,0-.57.25-.57.57s.25.57.57.57.57-.25.57-.57-.25-.57-.57-.57Z"/>
    <path class="cls-1" d="M34.33,38.36c-.31,0-.57.25-.57.57s.25.57.57.57.57-.25.57-.57-.25-.57-.57-.57Z"/>
    <path class="cls-1" d="M30.97,44.3c0-.31-.25-.57-.57-.57s-.57.25-.57.57.25.57.57.57.57-.25.57-.57Z"/>
    <path class="cls-1" d="M32.73,41.32c.31,0,.57-.25.57-.57s-.25-.57-.57-.57-.57.25-.57.57.25.57.57.57Z"/>
    <path class="cls-1" d="M29.34,41.53c0,.31.25.57.57.57s.57-.25.57-.57-.25-.57-.57-.57-.57.25-.57.57Z"/>
    <path class="cls-1" d="M29.93,38.5c0,.31.25.57.57.57s.57-.25.57-.57-.25-.57-.57-.57-.57.25-.57.57Z"/>
    <path class="cls-1" d="M29.38,36.32c0-.31-.25-.57-.57-.57s-.57.25-.57.57.25.57.57.57.57-.25.57-.57Z"/>
    <path class="cls-1" d="M36.22,28.79c-.31,0-.57.25-.57.57s.25.57.57.57.57-.25.57-.57-.25-.57-.57-.57Z"/>
    <path class="cls-1" d="M33.89,27.67c-.31,0-.57.25-.57.57s.25.57.57.57.57-.25.57-.57-.25-.57-.57-.57Z"/>
    <path class="cls-1" d="M37.75,27.33c-.31,0-.57.25-.57.57s.25.57.57.57.57-.25.57-.57-.25-.57-.57-.57Z"/>
    <path class="cls-1" d="M25.33,30.48c0,.31.25.57.57.57s.57-.25.57-.57-.25-.57-.57-.57-.57.25-.57.57Z"/>
    <path class="cls-1" d="M28.98,40.68c.31,0,.57-.25.57-.57s-.25-.57-.57-.57-.57.25-.57.57.25.57.57.57Z"/>
    <path class="cls-1" d="M25.69,41.38c0,.31.25.57.57.57s.57-.25.57-.57-.25-.57-.57-.57-.57.25-.57.57Z"/>
    <path class="cls-1" d="M35.74,25.79c-.31,0-.57.25-.57.57s.25.57.57.57.57-.25.57-.57-.25-.57-.57-.57Z"/>
    <circle class="cls-1" cx="29.11" cy="30.56" r=".57"/>
    <path class="cls-1" d="M30.92,28.69c.31,0,.57-.25.57-.57s-.25-.57-.57-.57-.57.25-.57.57.25.57.57.57Z"/>
    <path class="cls-1" d="M23.05,43.94c0-.31-.25-.57-.57-.57s-.57.25-.57.57.25.57.57.57.57-.25.57-.57Z"/>
    <path class="cls-1" d="M25.07,43.61c.31,0,.57-.25.57-.57s-.25-.57-.57-.57-.57.25-.57.57.25.57.57.57Z"/>
    <path class="cls-1" d="M21.73,41.38c0,.31.25.57.57.57s.57-.25.57-.57-.25-.57-.57-.57-.57.25-.57.57Z"/>
    <path class="cls-1" d="M22.71,48.13c.31,0,.57-.25.57-.57s-.25-.57-.57-.57-.57.25-.57.57.25.57.57.57Z"/>
    <path class="cls-1" d="M24.82,47.84c-.31,0-.57.25-.57.57s.25.57.57.57.57-.25.57-.57-.25-.57-.57-.57Z"/>
    <path class="cls-1" d="M24.34,46.33c.31,0,.57-.25.57-.57s-.25-.57-.57-.57-.57.25-.57.57.25.57.57.57Z"/>
    <path class="cls-1" d="M23.58,50.7c0,.31.25.57.57.57s.57-.25.57-.57-.25-.57-.57-.57-.57.25-.57.57Z"/>
    <path class="cls-1" d="M19.06,43.63c0,.31.25.57.57.57s.57-.25.57-.57-.25-.57-.57-.57-.57.25-.57.57Z"/>
    <circle class="cls-1" cx="21.42" cy="39.46" r=".57"/>
    <path class="cls-1" d="M32.5,37.32c0,.31.25.57.57.57s.57-.25.57-.57-.25-.57-.57-.57-.57.25-.57.57Z"/>
    <circle class="cls-1" cx="30.76" cy="32.39" r=".57"/>
    <path class="cls-1" d="M25.9,35.38c-.31,0-.57.25-.57.57s.25.57.57.57.57-.25.57-.57-.25-.57-.57-.57Z"/>
    <path class="cls-1" d="M29.31,33.17c-.31,0-.57.25-.57.57s.25.57.57.57.57-.25.57-.57-.25-.57-.57-.57Z"/>
    <path class="cls-1" d="M31.03,34.95c-.31,0-.57.25-.57.57s.25.57.57.57.57-.25.57-.57-.25-.57-.57-.57Z"/>
    <path class="cls-1" d="M34.06,31.31c0,.31.25.57.57.57s.57-.25.57-.57-.25-.57-.57-.57-.57.25-.57.57Z"/>
    <path class="cls-1" d="M17.72,46.57c0-.31-.25-.57-.57-.57s-.57.25-.57.57.25.57.57.57.57-.25.57-.57Z"/>
    <path class="cls-1" d="M13.07,46.76c0,.31.25.57.57.57s.57-.25.57-.57-.25-.57-.57-.57-.57.25-.57.57Z"/>
    <path class="cls-1" d="M10.12,45.14c-.31,0-.57.25-.57.57s.25.57.57.57.57-.25.57-.57-.25-.57-.57-.57Z"/>
    <path class="cls-1" d="M14.5,49.5c-.31,0-.57.25-.57.57s.25.57.57.57.57-.25.57-.57-.25-.57-.57-.57Z"/>
    <path class="cls-1" d="M15.77,44.11c-.31,0-.57.25-.57.57s.25.57.57.57.57-.25.57-.57-.25-.57-.57-.57Z"/>
    <path class="cls-1" d="M12.34,41.26c.31,0,.57-.25.57-.57s-.25-.57-.57-.57-.57.25-.57.57.25.57.57.57Z"/>
    <path class="cls-1" d="M21.17,45.29c-.31,0-.57.25-.57.57s.25.57.57.57.57-.25.57-.57-.25-.57-.57-.57Z"/>
    <path class="cls-1" d="M16.44,41.5c0,.31.25.57.57.57s.57-.25.57-.57-.25-.57-.57-.57-.57.25-.57.57Z"/>
    <path class="cls-1" d="M19.76,48.65c0,.31.25.57.57.57s.57-.25.57-.57-.25-.57-.57-.57-.57.25-.57.57Z"/>
    <circle class="cls-1" cx="22.65" cy="36.6" r=".57"/>
    <path class="cls-1" d="M17.64,35.25c.31,0,.57-.25.57-.57s-.25-.57-.57-.57-.57.25-.57.57.25.57.57.57Z"/>
    <path class="cls-1" d="M23.21,32.91c-.31,0-.57.25-.57.57s.25.57.57.57.57-.25.57-.57-.25-.57-.57-.57Z"/>
    <path class="cls-1" d="M25.89,32.79c0,.31.25.57.57.57s.57-.25.57-.57-.25-.57-.57-.57-.57.25-.57.57Z"/>
    <path class="cls-1" d="M13.21,34.9c.31,0,.57-.25.57-.57s-.25-.57-.57-.57-.57.25-.57.57.25.57.57.57Z"/>
    <path class="cls-1" d="M22.63,28.71c.31,0,.57-.25.57-.57s-.25-.57-.57-.57-.57.25-.57.57.25.57.57.57Z"/>
    <path class="cls-1" d="M28.21,27.55c-.31,0-.57.25-.57.57s.25.57.57.57.57-.25.57-.57-.25-.57-.57-.57Z"/>
    <path class="cls-1" d="M25.67,25.84c-.31,0-.57.25-.57.57s.25.57.57.57.57-.25.57-.57-.25-.57-.57-.57Z"/>
    <path class="cls-1" d="M32.92,22.79c-.31,0-.57.25-.57.57s.25.57.57.57.57-.25.57-.57-.25-.57-.57-.57Z"/>
    <path class="cls-1" d="M35.13,23.86c0,.31.25.57.57.57s.57-.25.57-.57-.25-.57-.57-.57-.57.25-.57.57Z"/>
    <path class="cls-1" d="M29.76,25.92c.31,0,.57-.25.57-.57s-.25-.57-.57-.57-.57.25-.57.57.25.57.57.57Z"/>
    <path class="cls-1" d="M36.86,21.24c-.31,0-.57.25-.57.57s.25.57.57.57.57-.25.57-.57-.25-.57-.57-.57Z"/>
    <path class="cls-1" d="M27.74,23.59c.31,0,.57-.25.57-.57s-.25-.57-.57-.57-.57.25-.57.57.25.57.57.57Z"/>
    <path class="cls-1" d="M23.05,25.44c.31,0,.57-.25.57-.57s-.25-.57-.57-.57-.57.25-.57.57.25.57.57.57Z"/>
    <path class="cls-1" d="M18.52,30.33c.31,0,.57-.25.57-.57s-.25-.57-.57-.57-.57.25-.57.57.25.57.57.57Z"/>
    <path class="cls-1" d="M20.74,33.15c.31,0,.57-.25.57-.57s-.25-.57-.57-.57-.57.25-.57.57.25.57.57.57Z"/>
    <path class="cls-1" d="M32.32,29.38c-.31,0-.57.25-.57.57s.25.57.57.57.57-.25.57-.57-.25-.57-.57-.57Z"/>
    <path class="cls-1" d="M32.16,26.71c.31,0,.57-.25.57-.57s-.25-.57-.57-.57-.57.25-.57.57.25.57.57.57Z"/>
    <path class="cls-1" d="M40.75,22.97c-.31,0-.57.25-.57.57s.25.57.57.57.57-.25.57-.57-.25-.57-.57-.57Z"/>
    <path class="cls-1" d="M35.92,33.62c-.31,0-.57.25-.57.57s.25.57.57.57.57-.25.57-.57-.25-.57-.57-.57Z"/>
    <circle class="cls-1" cx="32.79" cy="34.41" r=".57"/>
    <path class="cls-1" d="M33.07,31.76c-.31,0-.57.25-.57.57s.25.57.57.57.57-.25.57-.57-.25-.57-.57-.57Z"/>
    <path class="cls-1" d="M25.44,39.21c.31,0,.57-.25.57-.57s-.25-.57-.57-.57-.57.25-.57.57.25.57.57.57Z"/>
    <path class="cls-1" d="M14.22,26.89c.31,0,.57-.25.57-.57s-.25-.57-.57-.57-.57.25-.57.57.25.57.57.57Z"/>
    <path class="cls-1" d="M11.76,42.53c-.31,0-.57.25-.57.57s.25.57.57.57.57-.25.57-.57-.25-.57-.57-.57Z"/>
    <path class="cls-1" d="M15.2,39.19c.31,0,.57-.25.57-.57s-.25-.57-.57-.57-.57.25-.57.57.25.57.57.57Z"/>
    <path class="cls-1" d="M18.66,37.21c-.31,0-.57.25-.57.57s.25.57.57.57.57-.25.57-.57-.25-.57-.57-.57Z"/>
    <path class="cls-1" d="M8.51,39.27c-.31,0-.57.25-.57.57s.25.57.57.57.57-.25.57-.57-.25-.57-.57-.57Z"/>
    <path class="cls-1" d="M14.11,52.88c0-.31-.25-.57-.57-.57s-.57.25-.57.57.25.57.57.57.57-.25.57-.57Z"/>
    <path class="cls-1" d="M14.14,54.96c-.31,0-.57.25-.57.57s.25.57.57.57.57-.25.57-.57-.25-.57-.57-.57Z"/>
    <circle class="cls-1" cx="21.31" cy="62.88" r=".57"/>
    <path class="cls-1" d="M12.85,57.97c-.31,0-.57.25-.57.57s.25.57.57.57.57-.25.57-.57-.25-.57-.57-.57Z"/>
    <path class="cls-1" d="M17.39,63.53c-.31,0-.57.25-.57.57s.25.57.57.57.57-.25.57-.57-.25-.57-.57-.57Z"/>
    <path class="cls-1" d="M17.72,58.39c0-.31-.25-.57-.57-.57s-.57.25-.57.57.25.57.57.57.57-.25.57-.57Z"/>
    <path class="cls-1" d="M9.86,49.08c-.31,0-.57.25-.57.57s.25.57.57.57.57-.25.57-.57-.25-.57-.57-.57Z"/>
    <path class="cls-1" d="M8.23,54.03c-.31,0-.57.25-.57.57s.25.57.57.57.57-.25.57-.57-.25-.57-.57-.57Z"/>
    <path class="cls-1" d="M4.93,47.44c-.31,0-.57.25-.57.57s.25.57.57.57.57-.25.57-.57-.25-.57-.57-.57Z"/>
    <path class="cls-1" d="M2.33,45.98c-.31,0-.57.25-.57.57s.25.57.57.57.57-.25.57-.57-.25-.57-.57-.57Z"/>
    <path class="cls-1" d="M2.84,40.59c-.31,0-.57.25-.57.57s.25.57.57.57.57-.25.57-.57-.25-.57-.57-.57Z"/>
    <path class="cls-1" d="M8.74,35.29c-.31,0-.57.25-.57.57s.25.57.57.57.57-.25.57-.57-.25-.57-.57-.57Z"/>
    <path class="cls-1" d="M.57,34.31c-.31,0-.57.25-.57.57s.25.57.57.57.57-.25.57-.57-.25-.57-.57-.57Z"/>
    <path class="cls-1" d="M7.93,29.71c0-.31-.25-.57-.57-.57s-.57.25-.57.57.25.57.57.57.57-.25.57-.57Z"/>
    <path class="cls-1" d="M6.99,25.36c0-.31-.25-.57-.57-.57s-.57.25-.57.57.25.57.57.57.57-.25.57-.57Z"/>
    <path class="cls-1" d="M20.75,22.5c.31,0,.57-.25.57-.57s-.25-.57-.57-.57-.57.25-.57.57.25.57.57.57Z"/>
    <circle class="cls-1" cx="25.51" cy="16.85" r=".57"/>
    <path class="cls-1" d="M16.14,21.57c.31,0,.57-.25.57-.57s-.25-.57-.57-.57-.57.25-.57.57.25.57.57.57Z"/>
    <path class="cls-1" d="M28.58,20.49c.31,0,.57-.25.57-.57s-.25-.57-.57-.57-.57.25-.57.57.25.57.57.57Z"/>
    <path class="cls-1" d="M35.42,20.1c.31,0,.57-.25.57-.57s-.25-.57-.57-.57-.57.25-.57.57.25.57.57.57Z"/>
    <path class="cls-1" d="M32.63,21.08c.31,0,.57-.25.57-.57s-.25-.57-.57-.57-.57.25-.57.57.25.57.57.57Z"/>
    <path class="cls-1" d="M33.79,15.62c.31,0,.57-.25.57-.57s-.25-.57-.57-.57-.57.25-.57.57.25.57.57.57Z"/>
    <path class="cls-1" d="M36.79,17.37c.31,0,.57-.25.57-.57s-.25-.57-.57-.57-.57.25-.57.57.25.57.57.57Z"/>
    <path class="cls-1" d="M39.63,20.27c.31,0,.57-.25.57-.57s-.25-.57-.57-.57-.57.25-.57.57.25.57.57.57Z"/>
    <circle class="cls-1" cx="41.03" cy="21.34" r=".57"/>
    <path class="cls-1" d="M41.23,25.42c0,.31.25.57.57.57s.57-.25.57-.57-.25-.57-.57-.57-.57.25-.57.57Z"/>
    <path class="cls-1" d="M40.85,17.82c.31,0,.57-.25.57-.57s-.25-.57-.57-.57-.57.25-.57.57.25.57.57.57Z"/>
    <path class="cls-1" d="M44.12,15.31c.31,0,.57-.25.57-.57s-.25-.57-.57-.57-.57.25-.57.57.25.57.57.57Z"/>
    <path class="cls-1" d="M42.81,18.93c.31,0,.57-.25.57-.57s-.25-.57-.57-.57-.57.25-.57.57.25.57.57.57Z"/>
    <path class="cls-1" d="M44.38,19.99c0,.31.25.57.57.57s.57-.25.57-.57-.25-.57-.57-.57-.57.25-.57.57Z"/>
    <path class="cls-1" d="M48.12,17.59c.31,0,.57-.25.57-.57s-.25-.57-.57-.57-.57.25-.57.57.25.57.57.57Z"/>
    <path class="cls-1" d="M50.83,16.78c.31,0,.57-.25.57-.57s-.25-.57-.57-.57-.57.25-.57.57.25.57.57.57Z"/>
    <path class="cls-1" d="M54.03,19.43c.31,0,.57-.25.57-.57s-.25-.57-.57-.57-.57.25-.57.57.25.57.57.57Z"/>
    <path class="cls-1" d="M51.04,19.49c0,.31.25.57.57.57s.57-.25.57-.57-.25-.57-.57-.57-.57.25-.57.57Z"/>
    <path class="cls-1" d="M55.28,23.2c.31,0,.57-.25.57-.57s-.25-.57-.57-.57-.57.25-.57.57.25.57.57.57Z"/>
    <path class="cls-1" d="M58.87,22.74c.31,0,.57-.25.57-.57s-.25-.57-.57-.57-.57.25-.57.57.25.57.57.57Z"/>
    <circle class="cls-1" cx="57.68" cy="23.55" r=".57"/>
    <path class="cls-1" d="M62.17,27.01c.31,0,.57-.25.57-.57s-.25-.57-.57-.57-.57.25-.57.57.25.57.57.57Z"/>
    <path class="cls-1" d="M64.07,29.97c.31,0,.57-.25.57-.57s-.25-.57-.57-.57-.57.25-.57.57.25.57.57.57Z"/>
    <path class="cls-1" d="M63.82,31.57c0,.31.25.57.57.57s.57-.25.57-.57-.25-.57-.57-.57-.57.25-.57.57Z"/>
    <path class="cls-1" d="M65.92,34.85c.31,0,.57-.25.57-.57s-.25-.57-.57-.57-.57.25-.57.57.25.57.57.57Z"/>
    <path class="cls-1" d="M64.44,33.25c-.31,0-.57.25-.57.57s.25.57.57.57.57-.25.57-.57-.25-.57-.57-.57Z"/>
    <path class="cls-1" d="M65.92,38.31c0,.31.25.57.57.57s.57-.25.57-.57-.25-.57-.57-.57-.57.25-.57.57Z"/>
    <path class="cls-1" d="M66.84,39.87c0,.31.25.57.57.57s.57-.25.57-.57-.25-.57-.57-.57-.57.25-.57.57Z"/>
    <path class="cls-1" d="M67.46,42.63c-.31,0-.57.25-.57.57s.25.57.57.57.57-.25.57-.57-.25-.57-.57-.57Z"/>
    <path class="cls-1" d="M66.49,47.64c.31,0,.57-.25.57-.57s-.25-.57-.57-.57-.57.25-.57.57.25.57.57.57Z"/>
    <path class="cls-1" d="M66.11,44.93c.31,0,.57-.25.57-.57s-.25-.57-.57-.57-.57.25-.57.57.25.57.57.57Z"/>
    <path class="cls-1" d="M66.78,48.88c-.31,0-.57.25-.57.57s.25.57.57.57.57-.25.57-.57-.25-.57-.57-.57Z"/>
    <path class="cls-1" d="M65.61,42.13c.31,0,.57-.25.57-.57s-.25-.57-.57-.57-.57.25-.57.57.25.57.57.57Z"/>
    <path class="cls-1" d="M65.48,50.62c.31,0,.57-.25.57-.57s-.25-.57-.57-.57-.57.25-.57.57.25.57.57.57Z"/>
    <path class="cls-1" d="M65.54,52.94c-.31,0-.57.25-.57.57s.25.57.57.57.57-.25.57-.57-.25-.57-.57-.57Z"/>
    <path class="cls-1" d="M64.74,52.32c.31,0,.57-.25.57-.57s-.25-.57-.57-.57c-.25,0-.47.17-.54.4,0,0,0-.01,0-.02,0-.31-.25-.57-.57-.57-.12,0-.23.04-.32.1,0-.04.01-.07.01-.11,0-.18-.08-.33-.21-.44.06.02.12.03.18.03.07,0,.14-.01.2-.04.04.27.27.48.56.48.31,0,.57-.25.57-.57s-.25-.57-.57-.57c-.07,0-.14.01-.2.04,0-.05-.02-.1-.04-.15.15-.1.24-.27.24-.47,0-.18-.08-.34-.22-.44,0,0,.01,0,.02,0,.31,0,.57-.25.57-.57,0-.07-.01-.13-.04-.19.1.07.21.12.34.12.31,0,.57-.25.57-.57s-.25-.57-.57-.57c0,0-.01,0-.02,0,.14-.1.23-.27.23-.45,0-.02,0-.04,0-.06.06.25.28.44.55.44.31,0,.57-.25.57-.57s-.25-.57-.57-.57-.57.25-.57.57c0,.02,0,.04,0,.06-.06-.25-.28-.44-.55-.44-.14,0-.26.05-.36.13,0,0-.01-.02-.02-.03,0-.04.01-.08.01-.12,0-.06-.01-.11-.03-.16.1.09.23.14.37.14.28,0,.52-.21.56-.48.1.15.27.25.47.25.31,0,.57-.25.57-.57s-.25-.57-.57-.57c-.28,0-.52.21-.56.48-.1-.15-.27-.25-.47-.25-.08,0-.15.02-.21.04.09-.1.15-.23.15-.38,0-.31-.25-.57-.57-.57-.05,0-.11.01-.16.02,0-.03.01-.07.01-.11,0-.22-.12-.4-.3-.5.07-.08.11-.18.12-.3.06.03.13.05.2.06-.04.08-.07.17-.07.26,0,.31.25.57.57.57.16,0,.3-.06.4-.16-.05.08-.08.18-.08.29,0,.31.25.57.57.57s.57-.25.57-.57-.25-.57-.57-.57c-.16,0-.3.06-.4.16.05-.08.08-.18.08-.29,0-.15-.06-.28-.15-.38.07.04.16.06.24.06.31,0,.57-.25.57-.57s-.25-.57-.57-.57c-.28,0-.51.2-.56.46-.07-.23-.28-.39-.54-.39-.06,0-.12.01-.17.03.04-.08.07-.17.07-.27,0-.09-.02-.18-.06-.25.17-.1.28-.28.28-.49,0-.31-.25-.57-.57-.57-.12,0-.24.04-.33.11.02-.05.03-.11.03-.17,0-.19-.1-.36-.24-.46.06-.05.11-.12.15-.2,0,.02,0,.03,0,.05,0,.31.25.57.57.57.08,0,.16-.02.23-.05,0,.3.24.54.53.56-.22.08-.38.29-.38.53,0,.31.25.57.57.57s.57-.25.57-.57-.24-.55-.53-.56c.22-.08.38-.29.38-.53,0-.31-.25-.57-.57-.57-.08,0-.16.02-.23.05,0-.25-.17-.47-.4-.54.12-.1.19-.25.19-.42,0-.31-.25-.57-.57-.57-.17,0-.32.08-.43.2,0-.13-.06-.25-.14-.34.02,0,.03,0,.05,0,.31,0,.57-.25.57-.57s-.25-.57-.57-.57-.57.25-.57.57c0,.14.05.27.14.37-.02,0-.03,0-.05,0-.31,0-.56.25-.57.56-.08-.22-.29-.37-.53-.37-.19,0-.35.09-.45.23,0-.03,0-.06,0-.09,0-.31-.25-.57-.57-.57-.1,0-.19.03-.27.07.03-.07.05-.15.05-.24,0-.24-.15-.45-.37-.53.22-.05.39-.22.44-.44.07.04.16.07.25.08-.2.09-.34.29-.34.52,0,.31.25.57.57.57s.57-.25.57-.57-.23-.54-.53-.56c.2-.09.34-.29.34-.52,0-.26-.18-.48-.42-.55.25-.06.43-.28.43-.55s-.17-.47-.4-.54c.02,0,.03,0,.05,0,.31,0,.57-.25.57-.57s-.25-.57-.57-.57-.57.25-.57.57c0,.26.17.47.4.54-.02,0-.03,0-.05,0-.31,0-.57.25-.57.57,0,.26.18.48.42.55-.21.05-.38.22-.42.43-.08-.05-.18-.08-.29-.08-.31,0-.57.25-.57.57,0,.24.15.45.37.53-.26.05-.45.28-.45.56,0,.14.05.26.13.36-.08-.05-.18-.08-.29-.08-.31,0-.57.25-.57.57,0,.26.17.47.41.54,0,.02,0,.04,0,.07,0,.3.24.55.54.56-.17.1-.28.28-.28.49,0,.25.16.45.38.53-.11.09-.18.22-.19.37-.07-.03-.15-.05-.23-.05-.31,0-.57.25-.57.57s.25.57.57.57c.08,0,.15-.02.22-.04-.14.1-.24.27-.24.46,0,.06.01.12.03.17-.09-.06-.2-.1-.32-.1-.04,0-.08,0-.12.01.06-.09.09-.19.09-.31,0-.31-.25-.57-.57-.57s-.54.24-.56.53c-.07-.04-.16-.06-.24-.06-.31,0-.57.25-.57.57s.25.57.57.57.55-.24.56-.53c.07.04.16.06.24.06.04,0,.08,0,.12-.01-.06.09-.09.19-.09.31,0,.31.25.57.57.57.19,0,.36-.1.46-.24-.03.07-.04.14-.04.22,0,.26.17.47.4.54-.1.1-.17.24-.17.4,0,.26.18.48.41.54-.03,0-.06,0-.08,0-.31,0-.57.25-.57.57s.25.57.57.57.57-.25.57-.57c0-.26-.18-.48-.41-.54.03,0,.06,0,.08,0,.31,0,.57-.25.57-.57,0-.26-.17-.47-.4-.54.05-.05.1-.12.13-.19.1.15.27.25.47.25.03,0,.05,0,.08,0-.1.1-.16.24-.16.4,0,.31.25.57.57.57.05,0,.11-.01.16-.02-.01.04-.02.09-.02.14,0,.03,0,.06,0,.08-.1-.14-.27-.23-.46-.23-.31,0-.57.25-.57.57,0,.18.08.34.21.44-.07.1-.12.22-.12.35,0,.31.25.57.57.57.26,0,.48-.18.54-.42.02.09.05.18.11.25-.27.02-.48.23-.51.5-.08-.21-.29-.35-.52-.35-.31,0-.57.25-.57.57,0,.28.21.52.48.56-.17.05-.3.18-.36.35-.06-.05-.13-.09-.2-.11.04-.08.06-.16.06-.26,0-.31-.25-.57-.57-.57s-.57.25-.57.57c0,.26.17.47.4.54-.04.08-.06.16-.06.26,0,.31.25.57.57.57.25,0,.45-.16.53-.38.03.03.06.05.1.07-.06.09-.09.19-.09.3,0,.08.02.15.05.22-.06-.03-.13-.04-.21-.04-.16,0-.3.06-.4.16-.05-.02-.11-.03-.17-.03-.02,0-.03,0-.04,0,0,0,0-.01,0-.02,0-.31-.25-.57-.57-.57-.29,0-.53.22-.56.51-.1-.17-.28-.28-.49-.28-.07,0-.13.01-.19.03-.08-.22-.29-.38-.53-.38-.31,0-.57.25-.57.57s.25.57.57.57c.07,0,.13-.01.19-.03.03.09.08.16.14.22-.21.08-.36.29-.36.53,0,.01,0,.03,0,.04-.1,0-.2.03-.28.08.08-.1.14-.23.14-.37,0-.31-.25-.57-.57-.57-.05,0-.1,0-.15.02.18-.1.3-.28.3-.5,0-.2-.11-.38-.27-.48,0-.04.01-.07.01-.11,0-.31-.25-.57-.57-.57s-.57.25-.57.57c0,.2.11.38.27.48,0,.04-.01.07-.01.11,0,.31.25.57.57.57.05,0,.1,0,.15-.02-.18.1-.3.28-.3.5,0,.19.09.36.24.46-.02,0-.04,0-.06,0-.31,0-.56.25-.57.56-.07.02-.14.06-.2.1.05-.08.08-.18.08-.28,0-.31-.25-.57-.57-.57s-.57.25-.57.57.25.57.57.57c.14,0,.26-.05.36-.13-.05.08-.08.18-.08.28,0,.02,0,.05,0,.07-.1-.1-.24-.16-.39-.16s-.3.06-.4.17c0-.04.01-.07.01-.11,0-.31-.25-.57-.57-.57-.02,0-.04,0-.06,0,.1-.1.17-.23.18-.38.02,0,.05,0,.07,0,.31,0,.57-.25.57-.57s-.25-.57-.57-.57-.54.23-.56.53c-.02,0-.05,0-.07,0-.31,0-.57.25-.57.57,0,.07.01.13.03.19-.1-.1-.24-.17-.4-.17-.06,0-.11.01-.16.03.19-.09.32-.28.32-.51,0-.31-.25-.57-.57-.57s-.57.25-.57.57.25.57.57.57c.06,0,.11-.01.16-.03-.19.09-.32.28-.32.51,0,.15.06.29.16.4-.09-.05-.19-.09-.3-.09-.25,0-.47.17-.54.4-.1-.11-.25-.18-.42-.18-.3,0-.55.24-.56.53,0-.3-.26-.55-.56-.55-.14,0-.27.06-.37.14.03-.07.04-.14.04-.21,0-.31-.25-.57-.57-.57s-.57.25-.57.57.25.57.57.57c.14,0,.27-.06.37-.14-.03.07-.04.14-.04.21,0,.06.01.12.03.18-.1-.09-.23-.14-.37-.14-.19,0-.35.09-.46.23,0-.31-.25-.56-.57-.56-.1,0-.19.03-.27.07,0-.31-.25-.57-.57-.57s-.57.25-.57.57.25.57.57.57c.1,0,.19-.03.27-.07,0,.31.25.57.57.57.02,0,.05,0,.07,0-.14.1-.23.27-.23.45,0,.06.01.12.03.17,0,0-.02,0-.03,0,0-.02,0-.03,0-.05,0-.31-.25-.57-.57-.57-.15,0-.29.06-.4.16.03-.07.04-.14.04-.22,0-.31-.25-.57-.57-.57s-.57.25-.57.57.25.57.57.57c.15,0,.29-.06.4-.16-.03.07-.04.14-.04.22,0,.31.25.57.57.57.03,0,.05,0,.08,0,0,.02,0,.03,0,.05,0,.1.03.2.08.28-.05-.01-.1-.02-.15-.02-.28,0-.52.21-.56.48-.06-.07-.14-.12-.23-.15.2-.09.34-.29.34-.52,0-.31-.25-.57-.57-.57-.13,0-.25.05-.34.12.03-.07.04-.14.04-.22,0-.31-.25-.57-.57-.57s-.57.25-.57.57.25.57.57.57c.13,0,.25-.05.34-.12-.03.07-.04.14-.04.22,0,.05,0,.09.02.13-.1-.12-.25-.19-.42-.19-.25,0-.45.16-.53.38,0-.03,0-.05,0-.08,0-.2-.11-.38-.27-.48.11-.1.18-.25.18-.41,0-.31-.25-.57-.57-.57s-.57.25-.57.57c0,.2.11.38.27.48-.11.1-.18.25-.18.41,0,.23.14.43.34.52-.3.02-.53.26-.53.56s.25.57.57.57c.18,0,.34-.09.44-.22,0,.11.04.21.09.29-.3,0-.54.23-.56.52-.08-.21-.29-.35-.53-.35-.31,0-.57.25-.57.57,0,.04,0,.07.01.1-.06-.02-.12-.04-.19-.04-.31,0-.57.25-.57.57s.25.57.57.57c.12,0,.23-.04.32-.1,0,.04-.01.07-.01.11,0,.24.14.44.35.52-.22.08-.37.29-.37.53,0,.07.01.13.04.19-.05-.02-.11-.03-.17-.03-.25,0-.47.17-.54.4,0-.03,0-.05,0-.08,0-.31-.25-.57-.57-.57s-.57.25-.57.57c0,.05,0,.1.02.15-.1-.16-.28-.26-.48-.26-.31,0-.57.25-.57.57s.25.57.57.57.57-.25.57-.57c0-.05,0-.1-.02-.15.1.16.28.26.48.26.25,0,.47-.17.54-.4,0,.03,0,.05,0,.08,0,.31.25.57.57.57,0,0,0,0,.01,0-.13.1-.22.26-.22.44,0,.31.25.57.57.57.16,0,.3-.07.41-.17.09.2.29.34.52.34.03,0,.07,0,.1-.01-.12.1-.2.26-.2.43,0,.31.25.57.57.57.05,0,.1,0,.15-.02,0,0,0,.01,0,.02,0,.31.25.57.57.57s.57-.25.57-.57-.25-.57-.57-.57c-.05,0-.1,0-.15.02,0,0,0-.01,0-.02,0-.08-.02-.16-.05-.23.08.05.18.08.28.08.27,0,.5-.19.55-.44.05.02.11.03.17.03.01,0,.03,0,.04,0-.18.09-.31.28-.31.5s.13.41.31.5c-.18.09-.31.28-.31.5,0,.31.25.57.57.57.15,0,.29-.06.39-.16.03.29.27.51.56.51.31,0,.57-.25.57-.57s-.25-.57-.57-.57c-.15,0-.29.06-.39.16-.02-.2-.14-.36-.3-.45.07-.03.12-.08.17-.13.06.24.28.42.55.42.14,0,.26-.05.36-.13,0,.02,0,.03,0,.05,0,.26.17.47.4.54-.03.07-.05.14-.05.22,0,.31.25.57.57.57s.57-.25.57-.57c0-.08-.02-.15-.04-.21.1.11.25.17.41.17.31,0,.57-.25.57-.57,0-.2-.11-.38-.26-.48.1-.1.17-.25.17-.4,0-.31-.25-.57-.57-.57-.25,0-.45.16-.53.38,0-.1-.05-.2-.1-.28.03,0,.07.01.1.01.22,0,.41-.13.51-.32.1.16.28.26.48.26.04,0,.08,0,.11-.01,0,.03,0,.06,0,.09,0,.3.23.54.53.56-.25.06-.44.28-.44.55,0,.3.23.54.53.56-.24.07-.41.28-.41.54,0,.03,0,.05,0,.08-.08-.22-.29-.37-.53-.37-.31,0-.57.25-.57.57,0,.07.01.13.04.19-.1-.08-.23-.14-.37-.14-.31,0-.57.25-.57.57s.25.57.57.57c.11,0,.21-.03.3-.08-.03.07-.04.14-.04.22,0,.31.25.57.57.57s.57-.25.57-.57-.25-.57-.57-.57c-.11,0-.21.03-.3.08.03-.07.04-.14.04-.22,0-.07-.01-.13-.04-.19.1.08.23.14.37.14.31,0,.57-.25.57-.57,0-.03,0-.05,0-.08.08.22.29.37.53.37.31,0,.55-.24.56-.55.05.26.28.45.55.45.31,0,.57-.25.57-.57,0-.06-.01-.12-.03-.18.06.02.12.03.18.03.13,0,.25-.05.35-.12,0,.04-.01.07-.01.11,0,.31.25.57.57.57s.57-.25.57-.57-.25-.57-.57-.57c-.13,0-.25.05-.35.12,0-.04.01-.07.01-.11,0-.1-.03-.18-.07-.26.1.08.22.13.35.13.21,0,.39-.11.49-.28.09.05.19.08.29.08.11,0,.22-.03.31-.09-.05.08-.07.17-.07.28,0,.31.25.57.57.57s.57-.25.57-.57-.25-.57-.57-.57c-.11,0-.22.03-.31.09.05-.08.07-.17.07-.28,0-.31-.25-.57-.57-.57-.07,0-.15.02-.21.04,0-.02,0-.04,0-.06,0-.03,0-.05,0-.08.05.01.09.02.14.02.31,0,.57-.25.57-.57,0-.07-.02-.15-.04-.21.1.13.26.21.44.21s.33-.08.44-.21c0,.01,0,.03,0,.04,0,.31.25.57.57.57.07,0,.14-.01.21-.04-.1.1-.17.24-.17.4,0,.31.25.57.57.57s.57-.25.57-.57-.25-.57-.57-.57c-.07,0-.14.01-.21.04.09-.09.15-.21.16-.35.08.21.29.36.53.36.31,0,.57-.25.57-.57,0-.19-.1-.37-.25-.47.24-.05.42-.25.45-.5.03.29.27.51.56.51.31,0,.57-.25.57-.57,0-.07-.01-.14-.04-.2.1.1.24.16.39.16.31,0,.57-.25.57-.57,0-.02,0-.04,0-.06.1.11.25.18.41.18.31,0,.57-.25.57-.57,0-.28-.2-.51-.46-.56.24-.07.42-.28.42-.54,0-.13-.04-.24-.11-.33.1.09.23.15.38.15.31,0,.57-.25.57-.57,0-.29-.22-.53-.5-.56.19-.08.31-.27.33-.48.09.2.29.33.51.33.01,0,.03,0,.04,0-.17.1-.29.28-.29.49,0,.23.14.42.33.51-.05-.01-.1-.03-.16-.03-.31,0-.57.25-.57.57s.25.57.57.57.57-.25.57-.57c0-.23-.14-.42-.33-.51.05.01.1.03.16.03.31,0,.57-.25.57-.57s-.25-.57-.57-.57c-.01,0-.03,0-.04,0,.17-.1.29-.28.29-.49,0-.22-.13-.42-.32-.51.23-.07.4-.28.4-.54,0-.31-.25-.57-.57-.57,0,0-.02,0-.03,0,0-.01,0-.03,0-.04,0-.11-.03-.21-.09-.3.05.02.11.03.17.03.28,0,.51-.21.56-.47.08.05.18.08.28.08.31,0,.57-.25.57-.57,0-.04,0-.07-.01-.11.09.09.2.14.33.16-.05.08-.08.18-.08.29,0,.24.15.45.37.53-.02,0-.05,0-.07,0-.23,0-.42.13-.51.33,0,0,0,0,0,0,0-.31-.25-.57-.57-.57s-.57.25-.57.57.25.57.57.57c.23,0,.42-.13.51-.33,0,0,0,0,0,0,0,.31.25.57.57.57s.57-.25.57-.57c0-.24-.15-.45-.37-.53.02,0,.05,0,.07,0,.31,0,.57-.25.57-.57,0-.29-.22-.53-.5-.56.05-.08.08-.18.08-.29,0-.27-.19-.5-.45-.55.03,0,.07.01.11.01.25,0,.47-.17.54-.4,0,0,0,.01,0,.02,0,.31.25.57.57.57ZM64.22,42.75c.03.08.07.15.12.21-.06-.03-.12-.04-.18-.05.03-.05.05-.1.06-.16ZM63.01,39.44c-.06.05-.11.12-.15.2,0-.02,0-.03,0-.05,0-.1-.03-.19-.07-.27.06.05.13.1.21.12ZM51.98,52.36c.31,0,.57-.25.57-.57,0-.07-.01-.13-.03-.19.1.1.24.17.4.17.02,0,.04,0,.06,0-.11.1-.18.25-.18.42,0,.06.01.12.03.18-.09-.06-.2-.1-.32-.1-.31,0-.57.25-.57.57,0,.08.02.16.05.24-.05-.02-.11-.03-.17-.03-.05,0-.09,0-.13.02.09-.1.15-.24.15-.39s-.06-.29-.16-.4c.09.05.19.09.3.09ZM51.64,61.53c-.05-.07-.12-.13-.2-.17.21-.05.37-.22.41-.44.06.03.12.04.19.05-.23.07-.41.28-.41.54,0,0,0,.01,0,.02ZM51.61,59.96s.02.05.04.08c-.06.07-.11.16-.12.25-.07-.03-.15-.05-.23-.05-.03,0-.05,0-.08,0,0-.01,0-.02-.01-.03.17-.02.32-.12.41-.26ZM51.45,55.25s.07-.04.1-.06c.02.04.04.07.07.1-.03.03-.06.06-.08.09-.02-.05-.05-.09-.08-.13ZM51.71,54.16c0,.1.03.2.08.28-.03.02-.06.04-.09.06-.09-.19-.28-.32-.51-.32-.02,0-.04,0-.06,0,.09-.08.16-.19.19-.31.08.14.22.25.39.28ZM50.86,53.06c.1.11.25.18.42.18.05,0,.09,0,.13-.02-.07.07-.12.16-.14.26-.09-.17-.27-.28-.47-.29.03-.04.05-.09.06-.13ZM50.27,59.47s.06-.05.08-.07c.07.05.15.09.23.1-.01.05-.03.1-.03.16,0,.07.02.15.04.21-.05,0-.1.02-.15.04,0,0,0-.01,0-.02,0-.17-.07-.31-.19-.42ZM50.6,55.99s.05.05.08.07c0,.01,0,.02,0,.03-.02,0-.04,0-.06,0,0-.04,0-.08-.01-.11ZM50.68,60.99s.05,0,.08,0c.05.14.14.25.27.32-.06.01-.11.04-.16.07-.02-.16-.1-.29-.21-.38,0,0,.01,0,.02,0ZM50.77,54.32s.04,0,.06,0c-.03.02-.05.05-.08.08-.01-.03-.03-.05-.04-.08.02,0,.04,0,.06,0ZM50.69,55s.04.08.07.11c-.11.06-.21.15-.26.27,0-.08-.03-.15-.06-.21.1-.03.18-.09.25-.17ZM50.44,57.17s.06.02.09.03c0,.03-.02.05-.02.08-.03,0-.06.02-.08.03.01-.04.02-.09.02-.13,0,0,0,0,0,0ZM50.45,55.66s0,.06.01.09c-.01-.01-.03-.03-.04-.04,0-.02.02-.03.03-.05ZM50.32,58.32c.07.04.14.07.22.08-.1.03-.19.08-.26.16-.06-.04-.12-.07-.19-.09.09-.03.17-.08.23-.15ZM48.67,55.51c.08.05.18.08.28.08-.06.06-.1.14-.12.22-.05-.1-.13-.18-.22-.23.02-.02.04-.05.06-.07ZM48.2,54.33c.03.12.1.23.19.3-.05-.02-.11-.03-.17-.03-.2,0-.38.11-.48.27,0-.05-.01-.1-.03-.14.23-.02.42-.18.49-.39ZM47.71,53.48s0,.08.01.12c-.02,0-.04,0-.06,0-.02,0-.05,0-.07,0,.05-.03.09-.07.12-.12ZM47.18,55.46c.2,0,.38-.11.48-.27.01.2.12.37.29.46-.01.01-.03.03-.04.04-.1-.12-.26-.2-.43-.2-.15,0-.28.06-.38.15,0-.08-.03-.15-.07-.22.05.01.1.02.15.02ZM47.45,58.05c-.06-.12-.15-.21-.27-.27.04.01.09.02.13.02.06,0,.12-.01.17-.03-.03.07-.04.14-.04.21,0,.02,0,.05,0,.07ZM47.37,59.37s0,0,0,0c0,0,0,0,0,0,0,0,0,0,0,0ZM46.92,56.13c.03.25.22.45.46.5,0,.01,0,.03-.01.04-.02,0-.04,0-.06,0-.11,0-.21.03-.3.09,0,0,0,0,0,0,0-.21-.12-.4-.29-.49.07-.03.14-.06.2-.12ZM46.74,57.22s0,0,0,0c0,.23.13.42.32.51-.04-.01-.09-.02-.13-.02-.1,0-.2.03-.28.08.01-.04.02-.09.02-.14,0-.14-.05-.27-.14-.36.07-.01.14-.04.2-.08ZM46.93,58.86c.12,0,.22-.04.31-.1-.03.07-.04.14-.04.21,0,.03,0,.07,0,.1-.1-.11-.25-.17-.41-.17-.3,0-.54.23-.56.53-.06-.07-.13-.13-.22-.17.27-.04.47-.28.47-.56,0-.02,0-.03,0-.05.1.12.26.21.43.21ZM45.94,57.13s0-.03,0-.04c0-.04,0-.08-.01-.11.02.05.05.09.08.13-.03,0-.05.01-.08.02ZM46.08,60.27s-.02.05-.02.08c-.03-.01-.06-.02-.09-.03.04-.01.08-.03.11-.05ZM46.37,61.01c.07.03.15.05.23.05.11,0,.22-.03.3-.09.04.06.09.11.15.15-.1.09-.16.21-.18.35-.1-.11-.25-.19-.42-.19-.22,0-.41.13-.51.32,0-.06-.03-.12-.05-.18.23-.03.41-.2.47-.42ZM46.33,60c.02-.06.04-.12.04-.18.04.04.08.08.12.12-.06.01-.11.03-.16.06ZM46.37,58.34s-.09-.09-.15-.12c.06-.01.11-.03.16-.06-.01.04-.02.09-.02.14,0,.02,0,.03,0,.05ZM46.12,56.1s.09.08.14.11c-.22.08-.39.29-.39.53,0,.04,0,.08.01.11-.06-.12-.15-.22-.27-.28.26-.02.47-.22.51-.48ZM45.54,57.62s0,.03,0,.04c0,.21.11.39.28.49-.25.05-.44.27-.45.53-.08-.1-.19-.17-.32-.2.19-.09.32-.28.32-.51,0-.13-.04-.24-.11-.34.04,0,.08.01.11.01.06,0,.11-.01.17-.03ZM43.49,55.77c.23-.01.43-.17.5-.38,0,.03,0,.05,0,.08,0,.31.25.57.57.57s.57-.25.57-.57c0-.05,0-.09-.02-.13.06.07.15.13.24.16-.2.09-.34.29-.34.52s.13.42.33.51c-.29.03-.52.27-.52.56,0,.13.04.24.11.34-.04,0-.08-.01-.11-.01-.19,0-.36.09-.46.24.01-.05.02-.1.02-.16,0-.11-.03-.22-.09-.31.31,0,.57-.25.57-.57s-.25-.57-.57-.57c-.18,0-.34.09-.44.22,0-.22-.15-.41-.34-.5ZM44.28,58.18c-.06-.08-.15-.14-.24-.18.09-.04.17-.11.23-.19-.01.05-.02.1-.02.16,0,.07.02.14.04.21ZM43.32,59.66c-.06-.12-.16-.21-.28-.26.21-.08.35-.27.37-.5.09.1.21.17.35.19-.25.06-.44.28-.44.55,0,0,0,0,0,.01ZM42.53,58.4s.01-.07.01-.11,0-.07-.01-.1c.06.02.12.04.19.04.3,0,.54-.23.56-.52.06.15.18.26.33.32-.19.08-.32.27-.33.48-.1-.12-.26-.2-.43-.2-.12,0-.23.04-.32.1ZM43.01,61.44c-.09-.2-.29-.34-.52-.34,0,0,0,0-.01,0,.13-.1.22-.26.22-.44,0-.07-.01-.13-.04-.19.05.02.11.03.17.03.11,0,.21-.03.29-.08-.07.09-.11.21-.11.33,0,.24.15.45.37.53-.14,0-.27.07-.37.17ZM43.28,60.26c.07-.09.11-.21.11-.33,0,0,0,0,0-.01.1.18.28.3.5.3.13,0,.25-.05.35-.12,0,.03,0,.05,0,.08,0,.13.04.24.11.33-.08.04-.15.09-.21.16-.04-.28-.27-.49-.56-.49-.11,0-.21.03-.29.08ZM44.12,62.1c0,.08.02.16.05.23-.08-.05-.18-.08-.28-.08-.03,0-.07,0-.1.01.12-.1.2-.26.2-.43,0-.24-.16-.45-.37-.53.16-.01.3-.09.4-.21.03.24.21.43.45.48-.2.09-.34.29-.34.52ZM44.45,59.72s0-.05,0-.08c0-.29-.21-.52-.49-.56.25-.06.44-.28.44-.55,0-.07-.02-.14-.04-.21.08.1.19.17.32.2-.19.09-.32.28-.32.51,0,.31.25.57.57.57s.55-.24.56-.54c.06.07.13.13.21.17-.27.04-.47.28-.47.56,0,.02,0,.03,0,.05-.1-.14-.27-.23-.45-.23-.13,0-.25.05-.35.12ZM44.85,61.56s-.04-.01-.06-.02c.03-.01.05-.03.08-.04,0,.02-.01.04-.02.06ZM45.26,60.87c0,.09.02.18.06.25-.08.01-.16.04-.22.08.02-.06.03-.12.03-.18,0-.13-.04-.24-.11-.33.2-.09.34-.29.34-.52,0-.02,0-.03,0-.05.08.1.18.18.31.21-.23.07-.4.28-.4.54ZM47.23,63.02s0-.03,0-.05c0-.02,0-.03,0-.05.01.02.03.04.05.06-.02.01-.03.03-.05.04ZM47.12,62.6s0,.03,0,.05c-.1-.14-.27-.24-.46-.24-.17,0-.32.08-.43.2-.06-.24-.28-.42-.55-.42-.01,0-.03,0-.04,0,.11-.06.2-.14.25-.25.04.28.27.49.56.49s.53-.22.56-.5c.1.11.24.18.4.18-.18.1-.3.28-.3.5ZM47.38,60.08c-.11,0-.22.03-.3.09-.04-.06-.09-.11-.15-.15.15-.03.28-.12.36-.25.02.12.08.23.17.32-.03,0-.05,0-.08,0ZM47.46,58.5c.03-.07.04-.14.04-.21,0-.02,0-.05,0-.07.04.08.09.14.16.2-.07.02-.13.04-.19.08ZM47.71,62.03s.04-.02.06-.03c0,.01.02.03.03.04-.03,0-.06,0-.08,0ZM47.93,61.25c-.04-.07-.1-.13-.17-.18.05-.05.1-.11.13-.18,0,.12.04.23.1.32-.02.01-.04.02-.06.04ZM48.22,62.79c.02.18.11.33.26.42-.1.1-.17.25-.17.4,0,.08.02.15.04.21-.07-.07-.15-.12-.24-.14.03-.07.05-.14.05-.22,0-.15-.06-.29-.15-.39.1-.07.18-.17.22-.28ZM48.46,60.32c-.23,0-.42.13-.51.33,0-.16-.07-.3-.18-.41.03,0,.05,0,.08,0,.2,0,.38-.11.48-.27.01.13.07.26.16.35-.01,0-.02,0-.03,0ZM48.25,59.28c.05-.07.08-.16.09-.25.02,0,.03,0,.05,0-.06.08-.1.18-.11.29-.01-.01-.02-.03-.03-.04ZM48.32,57.51c-.09-.06-.2-.09-.31-.09-.06,0-.12.01-.17.03,0-.02.01-.04.02-.05.02,0,.04,0,.06,0,.31,0,.57-.25.57-.57,0-.03,0-.05,0-.08.06.11.15.2.26.25-.23.06-.39.26-.41.51ZM48.75,58.1s.09.02.13.02c.03,0,.06,0,.09,0-.05.08-.08.17-.09.27-.02-.1-.06-.2-.13-.27ZM48.78,58.8c.06-.08.1-.18.11-.29.02.13.08.24.17.32-.07-.03-.14-.04-.21-.04-.02,0-.04,0-.07,0ZM48.89,60.49s.07,0,.11-.01c-.02.05-.03.11-.03.17,0,0,0,0,0,0-.03-.06-.07-.12-.11-.16.01,0,.02,0,.03,0ZM48.94,61.18c.05-.08.08-.18.08-.29,0,0,0,0,0,0,.04.08.1.16.17.21-.09,0-.18.03-.25.08ZM49.75,54.89c-.08.03-.15.07-.21.13,0,0,0,0,0,0,0-.22-.13-.42-.32-.51.02-.03.04-.06.05-.09.09.06.2.1.32.1.04,0,.08,0,.12-.01,0,.04-.02.08-.02.13,0,.09.02.18.06.25ZM49.54,56.51s.05-.02.07-.03c.05.06.1.1.17.14-.26.05-.46.28-.46.56,0,0,0,0,0,0-.05-.06-.11-.11-.19-.14.23-.07.41-.28.41-.53ZM49.45,57.54s.02.02.03.03c-.01.01-.02.02-.03.04,0-.02,0-.04,0-.06,0,0,0,0,0,0ZM49.38,59.65s-.02-.03-.03-.05c.03-.07.05-.15.05-.24,0-.16-.07-.31-.18-.42.05.02.1.03.15.04,0,0,0,.02,0,.03,0,.17.07.31.19.42-.08.06-.14.13-.18.22ZM49.79,61.75s0-.05,0-.07c.01.02.02.05.04.07-.01,0-.03,0-.04,0ZM49.75,61.41c-.04-.08-.1-.15-.17-.21.09,0,.18-.04.26-.08-.06.08-.09.18-.09.29ZM49.58,53.39c-.23,0-.42.14-.51.33-.07-.05-.16-.08-.25-.09.01-.05.02-.1.02-.16,0-.06-.01-.12-.03-.18.1.09.23.14.37.14.3,0,.55-.24.56-.53,0,.3.25.53.54.55-.06.09-.09.19-.09.3,0,.12.04.23.1.32-.02,0-.04,0-.06,0-.04,0-.08,0-.12.01,0-.04.02-.08.02-.13,0-.31-.25-.57-.57-.57ZM50.06,60.43s.04-.01.06-.02c0,0,0,.01,0,.02,0,.18.09.34.22.44,0,0-.01,0-.02,0-.11,0-.21.03-.3.09.06-.09.09-.2.09-.31,0-.08-.02-.15-.04-.22ZM50.03,62.86c.25-.06.44-.28.44-.55,0-.11-.03-.22-.09-.31.08-.01.16-.04.23-.08.03.28.27.51.56.51.03,0,.06,0,.08,0-.02.04-.04.08-.05.13-.07-.03-.15-.05-.23-.05-.31,0-.56.25-.57.56-.1-.11-.23-.18-.39-.19ZM51.38,63.71c0,.06.01.12.03.18-.06-.02-.12-.03-.18-.03-.31,0-.55.24-.56.55-.05-.24-.26-.43-.52-.44.23-.07.41-.28.41-.53.1.12.25.19.42.19.27,0,.5-.19.55-.44.04.02.09.03.14.04-.17.1-.29.28-.29.49ZM51.76,62.1s-.06,0-.08,0c.04-.08.06-.16.06-.25,0,0,0-.01,0-.02.1.14.27.24.46.24.02,0,.05,0,.07,0-.02.05-.03.11-.03.17,0,.06.01.13.03.18-.09-.19-.28-.32-.51-.32ZM52.04,63.16c.08-.04.15-.11.2-.18,0,.01,0,.03,0,.04,0,.09.03.18.07.26-.07-.06-.16-.1-.26-.12ZM52.33,62.7s0-.03,0-.04c0-.06-.01-.13-.03-.18.02.05.06.1.1.14-.02.03-.05.05-.07.08ZM52.24,60.94c.11-.03.2-.09.27-.17,0,.01,0,.02,0,.04,0,.1.03.2.08.28-.09-.08-.21-.14-.34-.15ZM52.47,53.62s-.06-.02-.09-.03c0-.08-.02-.16-.05-.22.05.02.11.03.17.03.03,0,.06,0,.1,0-.06.06-.1.14-.13.23ZM52.6,60.19c.08.05.18.08.28.08.01,0,.03,0,.04,0-.11.03-.21.09-.28.18,0-.01,0-.02,0-.04,0-.08-.02-.15-.04-.22ZM52.95,61.69s-.09-.02-.14-.02c-.02,0-.05,0-.07,0,.02-.05.03-.11.03-.17,0-.1-.03-.2-.08-.28.08.08.19.13.31.14-.03.07-.06.15-.06.24,0,.03,0,.05,0,.08ZM52.99,53.21s-.05,0-.08,0c.04-.04.08-.09.1-.15-.01.05-.02.09-.02.14ZM53.07,60.24s-.03,0-.04,0c.06-.02.12-.04.18-.08,0,.04.02.07.04.1-.06-.02-.11-.03-.18-.03ZM53.05,52.99c.01-.05.02-.1.02-.16,0-.06-.01-.12-.03-.18.07.05.15.08.23.09-.1.06-.18.15-.22.25ZM53.76,52.58s-.01.07-.01.11c-.03-.01-.07-.02-.1-.02.04-.02.08-.05.11-.08ZM53.44,59.56c-.01-.05-.03-.1-.06-.14.02-.02.04-.05.06-.07,0,0,.02,0,.03,0h0c0,.06.03.12.05.17-.03.01-.05.03-.08.04ZM53.58,53.79c.12,0,.22-.04.31-.11.02.04.05.08.07.11-.05.04-.09.08-.12.13-.06-.02-.13-.04-.2-.04-.03,0-.05,0-.08,0,0-.03,0-.06.01-.1ZM53.9,61.04c0,.07.02.15.04.21-.09-.11-.22-.18-.36-.2.03-.07.06-.15.06-.24s-.02-.17-.06-.25c.06.02.11.03.18.03.18,0,.34-.09.45-.22.01.05.03.1.06.14-.21.08-.35.29-.35.52ZM54.31,59.9s-.02-.08-.04-.12c.13-.06.23-.17.28-.3.04.08.1.15.17.2-.17.01-.31.09-.41.22ZM56.06,51.23c.11,0,.21-.03.3-.09-.08.1-.14.23-.14.37s.05.26.13.35c-.04-.02-.08-.04-.13-.05,0-.04.02-.08.02-.13,0-.19-.09-.36-.24-.46.02,0,.04,0,.06,0ZM56.11,57.71s-.02.02-.03.03c0-.02,0-.03-.01-.05.01,0,.03,0,.04.01ZM55.98,58.25s0,.03.01.04c-.01,0-.03,0-.04,0,.01-.01.02-.03.03-.04ZM55.55,57.24s.09.02.14.02c.01,0,.03,0,.04,0,0,.04.02.08.03.12-.06-.03-.13-.04-.21-.04,0,0,0,0,0,0,0-.03,0-.06.01-.09ZM55.17,58.33c.09.08.2.12.32.13-.07.08-.12.17-.15.28-.06-.04-.14-.07-.21-.08.03-.07.05-.15.05-.24,0-.03,0-.07-.01-.1ZM54.82,52.95c.04-.08.06-.16.06-.25,0-.02,0-.05,0-.07.06.06.14.11.23.13-.11.03-.21.1-.29.19ZM55.03,61.08s0-.03,0-.04c0-.1-.03-.19-.07-.27.06-.02.11-.06.15-.1.08.1.18.17.31.2-.16.01-.3.09-.4.21ZM55.57,59.76c-.14,0-.27.05-.37.14-.03-.04-.07-.08-.11-.11.26-.02.47-.2.52-.45.03.02.07.04.11.05-.07.1-.12.21-.12.35,0,0,0,.02,0,.03,0,0-.02,0-.03,0ZM56,61.23c-.07-.17-.21-.3-.39-.34.29-.02.53-.26.53-.56,0,0,0-.02,0-.03,0,0,.02,0,.03,0,.01,0,.03,0,.04,0,.01.18.11.33.24.43-.24.05-.43.25-.45.51ZM63.75,45.26s0-.07-.01-.11c.07,0,.14-.02.2-.04-.09.1-.15.23-.15.38,0,.06.01.11.03.16-.04-.04-.09-.07-.15-.1.05-.09.08-.19.08-.3ZM63.49,47.71s.07.01.1.01c.31,0,.56-.25.57-.55.07.03.15.05.23.05,0,0,.01,0,.02,0-.14.1-.23.27-.23.45,0,.07.01.13.04.19-.09-.07-.21-.12-.34-.12-.19,0-.36.09-.46.24,0-.04-.01-.08-.03-.12.04-.05.08-.1.1-.15ZM63.31,48.39c.02.15.1.28.21.36,0,0-.01,0-.02,0-.18,0-.34.09-.45.22.02-.05.03-.11.03-.16,0-.08-.02-.15-.04-.21.11-.04.21-.11.27-.21ZM63.17,44.69s-.03,0-.05,0c-.01-.07-.04-.14-.08-.2.04,0,.09-.01.13-.02,0,.03-.01.07-.01.11s0,.07.01.11ZM62.98,42.41s0,0,.01,0c.06,0,.12-.01.17-.03-.03.06-.06.13-.06.21-.04-.02-.09-.04-.14-.05.01-.04.02-.08.02-.13ZM62.96,49.15c-.02.05-.03.11-.03.16,0,.05,0,.09.02.14-.07-.06-.16-.1-.25-.12.1-.04.19-.1.26-.19ZM62.95,50.45s-.1-.03-.15-.03c.03-.01.05-.02.08-.04.02.02.05.05.07.07ZM62.61,38.93c0,.09.03.17.07.24-.06-.05-.13-.1-.21-.12.06-.03.1-.07.15-.12ZM62.68,40.93c-.02.05-.03.11-.03.17,0,.09.02.18.06.25-.03.02-.06.04-.08.06-.03-.16-.13-.29-.26-.37.12,0,.22-.04.31-.1ZM62.3,51.3c.06.08.13.15.22.19-.09,0-.18.03-.26.08-.09-.16-.25-.26-.44-.28,0-.01,0-.02,0-.03.08.05.17.07.27.07.07,0,.14-.01.2-.04ZM61.93,43.46s.05.03.08.04c-.03.03-.05.06-.07.1,0,0,0-.01,0-.02,0-.04,0-.08-.01-.12ZM61.94,42.1c-.05.09-.09.19-.09.3,0,.03,0,.06,0,.09-.03-.05-.07-.1-.12-.14.07-.08.12-.18.14-.29.02,0,.03.01.05.02,0,0,0,.01,0,.02,0,0,0,0,0,.01ZM62.03,45.26s0-.03,0-.05c0-.11-.03-.2-.08-.29.02,0,.04-.01.06-.02.02.09.06.18.11.25-.04.03-.07.07-.1.11ZM61.74,41.06s-.01-.02-.02-.02c.08-.07.13-.15.16-.25.05.07.11.12.18.17-.12,0-.23.04-.32.11ZM61.65,38.75c.06.17.2.29.37.35-.16.09-.26.25-.28.44-.01-.17-.1-.32-.23-.42.09-.1.14-.23.14-.37ZM61.74,39.62c.01.18.1.33.24.42-.08.07-.13.15-.16.25-.08-.12-.21-.21-.35-.24.16-.09.27-.25.28-.44ZM61.35,44.65s-.03,0-.04.01c0-.02,0-.04.01-.07,0,.02.02.04.03.05ZM61.31,44.14s-.03.1-.04.15c-.04-.09-.1-.16-.18-.22.07.04.14.06.22.07ZM61.06,40.13c-.08.05-.15.11-.2.19,0-.03,0-.05,0-.08,0-.08-.02-.16-.05-.23.07.06.15.1.24.12ZM60.98,43.17c-.07.07-.12.16-.15.25-.01-.06-.04-.11-.07-.16.08-.02.15-.05.21-.1,0,0,0,0,0,0ZM60.95,41.03s-.04.04-.06.07c-.09-.17-.25-.29-.45-.3.15-.03.27-.13.35-.25,0,.03,0,.05,0,.08,0,.16.07.3.17.41ZM60.53,38.66s0,.06,0,.09c0,.01,0,.02,0,.03-.02-.02-.03-.04-.05-.05.02-.02.04-.04.05-.07ZM59,38.08c.08.05.18.08.29.08.1,0,.19-.03.27-.07-.03.07-.05.15-.05.24,0,.16.07.31.18.41-.1.1-.17.24-.17.4,0,.31.25.57.57.57,0,0,.01,0,.02,0-.15.05-.27.16-.33.31-.04-.27-.26-.47-.53-.48.17-.1.28-.28.28-.49,0-.26-.17-.47-.41-.54,0-.02,0-.04,0-.07,0-.14-.05-.26-.13-.36ZM59.17,41.57c.07.03.15.05.23.05.17,0,.32-.08.42-.19.02.13.07.24.16.32-.01,0-.02,0-.04,0-.2,0-.38.11-.48.27-.09-.06-.19-.09-.3-.09-.08,0-.15.02-.22.04.13-.09.21-.24.23-.4ZM59.76,43.36c-.1-.15-.27-.25-.47-.25s-.36.1-.46.24c.03-.07.04-.14.04-.22,0-.06-.01-.12-.03-.17.09.06.2.1.32.1.2,0,.38-.11.48-.27.09.06.19.09.3.09.05,0,.1,0,.14-.02.01.05.04.11.07.15-.18.04-.33.17-.4.34ZM59.96,40.98c-.03-.21-.17-.38-.37-.45.06-.06.12-.12.15-.2.04.26.25.46.51.48-.12.03-.22.09-.29.18ZM60.28,39.67c.22-.08.38-.29.38-.53,0-.01,0-.02,0-.03.03.04.06.07.1.09-.09.1-.14.23-.14.37,0,.08.02.16.05.23-.1-.08-.22-.13-.36-.13,0,0-.01,0-.02,0ZM60.49,42.17c-.03-.1-.08-.19-.15-.26.01,0,.02,0,.04,0,.18,0,.34-.08.44-.21,0,0,0,0,0,0-.04.08-.06.16-.06.25,0,.08.02.15.04.22-.05-.02-.11-.03-.17-.03-.05,0-.1,0-.14.02ZM60.76,43.96s-.05,0-.08,0c.07-.07.12-.15.14-.25.03.13.11.24.21.32-.08-.05-.18-.08-.28-.08ZM61.1,46.32c-.02-.14-.1-.26-.21-.35.07-.1.12-.22.12-.35,0-.03,0-.06,0-.08.07.1.17.17.28.2-.02.06-.04.13-.04.2,0,.04,0,.07.01.11-.08.07-.13.16-.16.26ZM61.22,51.74s-.01.08-.01.12c0,0,0,0,0,.01-.02-.04-.05-.08-.08-.11,0-.01.01-.02.02-.03.03,0,.05,0,.08.01ZM60.72,48.93s.01-.02.02-.03c.03.02.06.03.09.04,0,.02,0,.05,0,.07-.03-.03-.07-.06-.12-.08ZM61.06,52.79c-.05-.04-.11-.07-.18-.08.03,0,.06-.02.09-.04.02.04.05.08.08.12ZM60.73,53.82c.13,0,.24-.04.34-.12.01.07.04.13.07.18-.05-.02-.11-.03-.17-.03-.13,0-.25.05-.35.12.02-.05.03-.11.03-.16.03,0,.05,0,.08,0ZM60.72,47.59c.04.11.12.2.21.26-.18.03-.32.14-.41.29-.06-.03-.13-.06-.2-.07.21-.07.37-.25.39-.48ZM60.19,55.74c-.21.08-.36.29-.36.53,0,.07.01.14.04.21-.08-.04-.17-.07-.26-.07-.17,0-.31.07-.42.19.02-.06.03-.12.03-.19,0-.07-.01-.14-.04-.2.06.02.12.04.19.04.31,0,.57-.25.57-.57,0-.03,0-.05,0-.08.07.07.15.12.25.15ZM59.56,50.72c.05.02.11.03.17.03.07,0,.13-.01.19-.04-.04.07-.06.15-.07.23-.09-.1-.21-.16-.34-.18.02-.01.04-.03.05-.04ZM59.71,53.37s-.03.03-.05.05c-.02,0-.04,0-.05,0,.01-.03.03-.05.03-.08.02.01.05.03.07.04ZM59.23,54.86c.1.17.28.29.49.29.02,0,.04,0,.06,0,0,.02,0,.04,0,.06,0,.03,0,.05,0,.08-.1-.11-.25-.17-.41-.17-.12,0-.22.04-.31.09h0c0-.1-.03-.18-.07-.26.08-.01.16-.04.23-.08ZM59.01,53.71s.02,0,.03,0c-.02.03-.03.07-.04.11-.01,0-.03,0-.04,0,.02-.03.04-.07.06-.11ZM59.07,56.79c-.02.05-.03.11-.03.17-.04-.02-.08-.04-.13-.04.06-.03.12-.07.16-.12ZM57.72,50.49c.19-.08.33-.25.35-.47.08.14.22.24.38.27-.29.02-.52.27-.52.56,0,.19.09.35.23.46-.04,0-.08-.01-.12-.01-.12,0-.23.04-.32.1-.02-.01-.04-.02-.07-.03.14-.1.24-.27.24-.46,0-.16-.07-.31-.18-.41ZM58.42,54.64s-.09.02-.13.03c0-.03-.01-.06-.02-.09.03-.05.04-.11.05-.17.01,0,.02,0,.04,0,0,.08.03.16.06.23ZM57.73,55.32c.07,0,.14-.01.21-.04,0,.04.02.08.03.12-.04,0-.08-.01-.12-.01-.07,0-.13.01-.19.04,0-.04-.01-.08-.02-.11.03,0,.07.01.1.01ZM56.85,55.99s.09.04.13.04c-.02.03-.04.06-.05.1-.03-.03-.07-.05-.1-.07,0-.02.02-.05.02-.07ZM56.58,52.1s-.04-.06-.06-.09c.03.02.07.03.11.05-.02.01-.03.03-.05.05ZM57.32,60.2c-.03-.29-.27-.51-.56-.51-.01,0-.03,0-.04,0,0-.05-.01-.09-.03-.14.12-.03.22-.09.29-.18.06.25.28.44.55.44-.12.09-.19.23-.21.39ZM57.08,58.46c0,.13.04.24.11.34-.03.02-.06.05-.09.08-.03-.14-.11-.26-.23-.34.13-.1.21-.26.21-.44,0-.11-.03-.21-.08-.29.02,0,.04,0,.06,0,.12,0,.23-.04.32-.1.04.07.1.14.17.18-.27.05-.47.28-.47.56ZM57.87,56.86c-.12,0-.23.04-.32.1,0-.02-.02-.03-.03-.05.23-.03.42-.19.48-.42.03,0,.06-.02.09-.03.02.25.21.46.45.5-.08.04-.15.1-.2.17-.1-.16-.28-.27-.48-.27ZM58.62,58c-.19.03-.34.16-.42.32-.03-.14-.12-.26-.23-.34.15-.03.27-.11.36-.22.07.11.17.19.29.23ZM58.24,59.65c0,.07.01.14.04.2-.1-.1-.24-.16-.39-.16.13-.1.21-.26.21-.44,0-.13-.04-.24-.11-.34.07-.06.14-.13.17-.22.05.22.23.39.45.43-.22.08-.38.29-.38.53ZM58.66,55.84c-.09,0-.17.02-.25.06,0-.05-.02-.1-.03-.15.04,0,.08.01.12.01.12,0,.22-.04.31-.09h0c0,.07.01.14.04.2-.06-.02-.12-.04-.19-.04ZM58.56,51.63c-.04-.09-.1-.17-.18-.22.04,0,.08.01.12.01.14,0,.27-.05.37-.14,0,.01,0,.03,0,.04,0,.04,0,.07.01.1-.13.03-.24.1-.31.2ZM59.25,57.82c-.05.08-.08.18-.08.28,0,.06.01.11.03.16-.07-.11-.17-.19-.29-.23.14-.02.26-.1.35-.21ZM59.21,59.2s0,.04,0,.06c-.08-.09-.19-.15-.31-.17.22-.08.38-.29.38-.53,0-.06-.01-.11-.03-.16.08.13.22.23.37.26-.24.07-.42.28-.42.54ZM59.73,57.53c-.18,0-.34.09-.45.22.05-.08.07-.17.08-.27.07.03.15.06.24.06.15,0,.29-.06.4-.16,0,.11.05.22.11.3-.1-.09-.23-.15-.38-.15ZM60.17,56.94c0-.06-.02-.12-.04-.17.06.03.13.05.2.06-.06.03-.12.06-.16.11ZM60.34,54.64s-.04,0-.06,0c0-.02,0-.04,0-.06,0-.09-.02-.17-.06-.24.07-.02.14-.05.2-.1-.02.06-.03.12-.03.18,0,.08.02.16.05.23-.03,0-.07-.01-.1-.01ZM60.48,52.68s.06.02.09.03c-.02,0-.05.01-.07.02,0-.02-.01-.04-.02-.06ZM60.91,56.03c-.07-.15-.2-.26-.36-.31.21-.08.36-.29.36-.53,0-.08-.02-.16-.05-.23.03,0,.07.01.1.01,0,0,.02,0,.03,0,0,.01,0,.03,0,.04,0,.22.13.42.32.51-.22.07-.38.26-.4.5ZM62.86,52.79c-.1-.1-.24-.17-.4-.17-.28,0-.51.21-.56.47-.08-.05-.18-.07-.28-.07-.13,0-.24.04-.34.12-.02-.1-.07-.19-.13-.26.09.07.21.11.33.11.31,0,.57-.25.57-.57,0-.02,0-.04,0-.05.01,0,.02-.01.03-.02.1.17.28.28.49.28.11,0,.22-.03.31-.09-.01.05-.02.09-.02.14,0,.04,0,.07.01.11ZM63.41,52.11c-.11,0-.22.03-.31.09.01-.05.02-.09.02-.14,0-.22-.13-.42-.32-.51.1,0,.2-.04.28-.09,0,.04-.01.07-.01.11,0,.27.19.5.45.55-.03,0-.07-.01-.11-.01Z"/>
    <path class="cls-1" d="M63.14,55.53c0-.31-.25-.57-.57-.57s-.57.25-.57.57.25.57.57.57.57-.25.57-.57Z"/>
    <path class="cls-1" d="M63.28,56.35c-.31,0-.57.25-.57.57s.25.57.57.57.57-.25.57-.57-.25-.57-.57-.57Z"/>
    <path class="cls-1" d="M60.71,59.48c-.31,0-.57.25-.57.57s.25.57.57.57.57-.25.57-.57-.25-.57-.57-.57Z"/>
    <path class="cls-1" d="M59.49,60.89c0-.31-.25-.57-.57-.57s-.57.25-.57.57.25.57.57.57.57-.25.57-.57Z"/>
    <path class="cls-1" d="M59.52,61.84c-.31,0-.57.25-.57.57s.25.57.57.57.57-.25.57-.57-.25-.57-.57-.57Z"/>
    <path class="cls-1" d="M57.11,63.39c-.31,0-.57.25-.57.57s.25.57.57.57.57-.25.57-.57-.25-.57-.57-.57Z"/>
    <path class="cls-1" d="M55.71,63c-.31,0-.57.25-.57.57s.25.57.57.57.57-.25.57-.57-.25-.57-.57-.57Z"/>
    <path class="cls-1" d="M53.9,64.21c-.31,0-.57.25-.57.57s.25.57.57.57.57-.25.57-.57-.25-.57-.57-.57Z"/>
    <path class="cls-1" d="M52.26,66.69c-.31,0-.57.25-.57.57s.25.57.57.57.57-.25.57-.57-.25-.57-.57-.57Z"/>
    <path class="cls-1" d="M50.62,65.03c-.31,0-.57.25-.57.57s.25.57.57.57.57-.25.57-.57-.25-.57-.57-.57Z"/>
    <path class="cls-1" d="M52.14,66.25c.31,0,.57-.25.57-.57s-.25-.57-.57-.57-.57.25-.57.57.25.57.57.57Z"/>
    <path class="cls-1" d="M50.43,66.27c-.31,0-.57.25-.57.57s.25.57.57.57.57-.25.57-.57-.25-.57-.57-.57Z"/>
    <path class="cls-1" d="M48.46,66.87c0-.31-.25-.57-.57-.57s-.57.25-.57.57.25.57.57.57.57-.25.57-.57Z"/>
    <path class="cls-1" d="M48.5,67.5c-.31,0-.57.25-.57.57s.25.57.57.57.57-.25.57-.57-.25-.57-.57-.57Z"/>
    <path class="cls-1" d="M45.66,67.26c-.31,0-.57.25-.57.57s.25.57.57.57.57-.25.57-.57-.25-.57-.57-.57Z"/>
    <path class="cls-1" d="M45.62,68.85c-.31,0-.57.25-.57.57s.25.57.57.57.57-.25.57-.57-.25-.57-.57-.57Z"/>
    <path class="cls-1" d="M43.62,67.94c-.31,0-.57.25-.57.57s.25.57.57.57.57-.25.57-.57-.25-.57-.57-.57Z"/>
    <path class="cls-1" d="M42.17,69.57c-.31,0-.57.25-.57.57s.25.57.57.57.57-.25.57-.57-.25-.57-.57-.57Z"/>
    <path class="cls-1" d="M41.09,67.98c-.31,0-.57.25-.57.57s.25.57.57.57.57-.25.57-.57-.25-.57-.57-.57Z"/>
    <path class="cls-1" d="M39.46,68.93c-.31,0-.57.25-.57.57s.25.57.57.57.57-.25.57-.57-.25-.57-.57-.57Z"/>
    <path class="cls-1" d="M39.81,67.77c0-.31-.25-.57-.57-.57s-.57.25-.57.57.25.57.57.57.57-.25.57-.57Z"/>
    <path class="cls-1" d="M37.42,68.96c0-.31-.25-.57-.57-.57s-.57.25-.57.57.25.57.57.57.57-.25.57-.57Z"/>
    <circle class="cls-1" cx="37.32" cy="70.3" r=".57"/>
    <path class="cls-1" d="M34.8,68.97c-.31,0-.57.25-.57.57s.25.57.57.57.57-.25.57-.57-.25-.57-.57-.57Z"/>
    <path class="cls-1" d="M35.14,67.4c-.31,0-.57.25-.57.57s.25.57.57.57.57-.25.57-.57-.25-.57-.57-.57Z"/>
    <path class="cls-1" d="M38.41,65.43c.31,0,.57-.25.57-.57s-.25-.57-.57-.57-.57.25-.57.57.25.57.57.57Z"/>
    <path class="cls-1" d="M39.5,66.48c.31,0,.57-.25.57-.57s-.25-.57-.57-.57-.57.25-.57.57.25.57.57.57Z"/>
    <path class="cls-1" d="M32.11,69.36c-.31,0-.57.25-.57.57s.25.57.57.57.57-.25.57-.57-.25-.57-.57-.57Z"/>
    <path class="cls-1" d="M29.59,67.18c-.31,0-.57.25-.57.57s.25.57.57.57.57-.25.57-.57-.25-.57-.57-.57Z"/>
    <path class="cls-1" d="M32.63,67.23c-.31,0-.57.25-.57.57s.25.57.57.57.57-.25.57-.57-.25-.57-.57-.57Z"/>
    <circle class="cls-1" cx="31.17" cy="66.82" r=".57"/>
    <path class="cls-1" d="M29.46,66.37c0-.31-.25-.57-.57-.57s-.57.25-.57.57.25.57.57.57.57-.25.57-.57Z"/>
    <path class="cls-1" d="M27.7,68.04c-.31,0-.57.25-.57.57s.25.57.57.57.57-.25.57-.57-.25-.57-.57-.57Z"/>
    <path class="cls-1" d="M22.94,67.16c-.31,0-.57.25-.57.57s.25.57.57.57.57-.25.57-.57-.25-.57-.57-.57Z"/>
    <path class="cls-1" d="M24.72,64.98c-.31,0-.57.25-.57.57s.25.57.57.57.57-.25.57-.57-.25-.57-.57-.57Z"/>
    <path class="cls-1" d="M18.47,60.79c-.31,0-.57.25-.57.57s.25.57.57.57.57-.25.57-.57-.25-.57-.57-.57Z"/>
    <path class="cls-1" d="M25.27,63.29c-.31,0-.57.25-.57.57s.25.57.57.57.57-.25.57-.57-.25-.57-.57-.57Z"/>
    <circle class="cls-1" cx="21.68" cy="65.57" r=".57"/>
    <path class="cls-1" d="M27.31,65.64c0-.31-.25-.57-.57-.57s-.57.25-.57.57.25.57.57.57.57-.25.57-.57Z"/>
    <path class="cls-1" d="M65.29,49.08c0-.31-.25-.57-.57-.57s-.57.25-.57.57.25.57.57.57.57-.25.57-.57Z"/>
    <path class="cls-1" d="M58.63,40.02c0-.31-.25-.57-.57-.57s-.55.24-.56.54c-.04-.25-.25-.45-.51-.47.02-.06.04-.13.04-.2,0-.31-.25-.57-.57-.57s-.57.25-.57.57c0,.3.23.54.52.56-.02.06-.04.13-.04.2,0,.03,0,.06,0,.09-.1-.17-.28-.29-.49-.29-.31,0-.57.25-.57.57s.25.57.57.57.57-.25.57-.57c0-.03,0-.06,0-.09.1.17.28.29.49.29.3,0,.55-.24.56-.54.03.15.11.29.24.37-.05-.01-.1-.02-.16-.02-.31,0-.57.25-.57.57s.25.57.57.57.57-.25.57-.57c0-.19-.1-.36-.25-.47.05.01.1.02.16.02.31,0,.57-.25.57-.57Z"/>
    <path class="cls-1" d="M64.33,39.72c.31,0,.57-.25.57-.57s-.25-.57-.57-.57-.57.25-.57.57.25.57.57.57Z"/>
    <path class="cls-1" d="M55.67,42.25c-.31,0-.57.25-.57.57s.25.57.57.57.57-.25.57-.57-.25-.57-.57-.57Z"/>
    <path class="cls-1" d="M49.31,38.38c0-.31-.25-.57-.57-.57s-.57.25-.57.57.25.57.57.57.57-.25.57-.57Z"/>
    <path class="cls-1" d="M47.23,39.47c0,.31.25.57.57.57s.57-.25.57-.57-.25-.57-.57-.57-.57.25-.57.57Z"/>
    <path class="cls-1" d="M54.73,33.04c-.31,0-.57.25-.57.57s.25.57.57.57.57-.25.57-.57-.25-.57-.57-.57Z"/>
    <path class="cls-1" d="M51.51,40.19c.31,0,.57-.25.57-.57s-.25-.57-.57-.57-.57.25-.57.57.25.57.57.57Z"/>
    <path class="cls-1" d="M50.78,39c0-.31-.25-.57-.57-.57s-.57.25-.57.57.25.57.57.57.57-.25.57-.57Z"/>
    <circle class="cls-1" cx="51.87" cy="42.28" r=".57"/>
    <path class="cls-1" d="M36.78,56.08c0-.31-.25-.57-.57-.57s-.57.25-.57.57.25.57.57.57.57-.25.57-.57Z"/>
    <path class="cls-1" d="M37.01,54.51c-.31,0-.57.25-.57.57s.25.57.57.57.57-.25.57-.57-.25-.57-.57-.57Z"/>
    <path class="cls-1" d="M53.05,46.39c.31,0,.57-.25.57-.57s-.25-.57-.57-.57-.57.25-.57.57.25.57.57.57Z"/>
    <path class="cls-1" d="M42.91,37.82c-.31,0-.57.25-.57.57s.25.57.57.57.57-.25.57-.57-.25-.57-.57-.57Z"/>
    <path class="cls-1" d="M41.29,35.89c0,.31.25.57.57.57s.57-.25.57-.57-.25-.57-.57-.57-.57.25-.57.57Z"/>
    <path class="cls-1" d="M43.23,34.47c-.31,0-.57.25-.57.57s.25.57.57.57.57-.25.57-.57-.25-.57-.57-.57Z"/>
    <path class="cls-1" d="M45.84,38.82c0,.31.25.57.57.57s.57-.25.57-.57-.25-.57-.57-.57-.57.25-.57.57Z"/>
    <path class="cls-1" d="M49.33,32.23c0,.31.25.57.57.57s.57-.25.57-.57-.25-.57-.57-.57-.57.25-.57.57Z"/>
  </g>
</svg>